<!-- Generator: Adobe Illustrator 17.0.0, SVG Export Plug-In  -->
<svg version="1.1"
	 xmlns="http://www.w3.org/2000/svg" xmlns:xlink="http://www.w3.org/1999/xlink" xmlns:a="http://ns.adobe.com/AdobeSVGViewerExtensions/3.0/"
	 x="0px" y="0px" width="220px" height="25.1px" viewBox="0 0 220 25.1" enable-background="new 0 0 220 25.1" xml:space="preserve"
	>
<defs>
</defs>
<g>
	<g>
		<g>
			<path fill="#3E3A39" d="M70.702,12.736c0.04-0.074,0.097-0.12,0.171-0.137c0.069-0.011,0.131,0.003,0.188,0.043
				c0.069,0.04,0.106,0.094,0.111,0.163c0.005,0.068-0.012,0.137-0.051,0.205c-0.239,0.371-0.567,0.753-0.984,1.146
				c-0.057,0.057-0.12,0.086-0.188,0.086c-0.069,0-0.131-0.026-0.188-0.077c-0.051-0.063-0.074-0.123-0.068-0.18
				c0-0.074,0.034-0.14,0.103-0.197C70.177,13.434,70.48,13.084,70.702,12.736z M72.481,12.454h-1.642
				c-0.228-0.011-0.397-0.071-0.505-0.18c-0.12-0.12-0.177-0.268-0.171-0.445v-4.61c0.005-0.211,0.063-0.376,0.171-0.496
				c0.125-0.12,0.294-0.18,0.505-0.18h1.642c0.199,0,0.353,0.063,0.462,0.188c0.097,0.131,0.148,0.294,0.154,0.488v4.61
				c0,0.188-0.054,0.337-0.163,0.445C72.809,12.394,72.658,12.454,72.481,12.454z M70.668,8.391h1.925V7.373
				c-0.006-0.108-0.034-0.188-0.086-0.239c-0.068-0.063-0.165-0.091-0.291-0.085h-1.232c-0.108,0.006-0.191,0.037-0.248,0.094
				c-0.051,0.063-0.074,0.14-0.068,0.231V8.391z M72.592,10.606h-1.925v0.966c-0.006,0.126,0.02,0.223,0.077,0.291
				c0.057,0.057,0.137,0.086,0.239,0.086h1.232c0.12,0,0.214-0.037,0.282-0.111c0.063-0.068,0.094-0.157,0.094-0.265V10.606z
				 M70.668,10.102h1.925V8.895h-1.925V10.102z M72.182,13.01c-0.051-0.063-0.077-0.128-0.077-0.197
				c0-0.068,0.026-0.122,0.077-0.162c0.057-0.051,0.12-0.074,0.188-0.069c0.069,0.006,0.128,0.037,0.18,0.094
				c0.57,0.713,0.847,1.158,0.83,1.334c-0.017,0.063-0.054,0.114-0.111,0.154c-0.069,0.023-0.131,0.031-0.188,0.026
				c-0.069-0.017-0.123-0.063-0.163-0.137C72.672,13.648,72.427,13.3,72.182,13.01z M76.125,8.04h-2.326
				c-0.086-0.006-0.149-0.029-0.188-0.069c-0.046-0.051-0.068-0.114-0.068-0.188c0.005-0.069,0.028-0.128,0.068-0.18
				c0.051-0.045,0.114-0.068,0.188-0.068h2.421V6.415c0.006-0.085,0.029-0.154,0.069-0.205c0.045-0.046,0.105-0.071,0.18-0.077
				c0.069,0.006,0.128,0.029,0.18,0.068c0.051,0.051,0.077,0.123,0.077,0.214v1.121h0.736c0.08,0,0.14,0.02,0.18,0.06
				c0.046,0.051,0.069,0.114,0.069,0.188c-0.006,0.068-0.029,0.128-0.069,0.18c-0.046,0.051-0.106,0.077-0.18,0.077h-0.736v5.029
				c-0.006,0.348-0.12,0.633-0.342,0.855c-0.023,0.017-0.043,0.034-0.06,0.051c-0.314,0.245-0.915,0.274-1.805,0.086
				c-0.091-0.023-0.157-0.069-0.197-0.137c-0.034-0.063-0.043-0.131-0.026-0.205c0.057-0.171,0.174-0.231,0.351-0.18
				c0.793,0.12,1.283,0.074,1.471-0.137c0.069-0.103,0.103-0.251,0.103-0.445v-3.96c-0.781,1.511-1.637,2.663-2.566,3.456
				c-0.068,0.057-0.137,0.083-0.205,0.077c-0.074-0.006-0.131-0.034-0.171-0.086c-0.091-0.131-0.077-0.257,0.043-0.376
				c0.331-0.308,0.633-0.61,0.907-0.907C75.013,10.267,75.646,9.226,76.125,8.04z"/>
			<path fill="#3E3A39" d="M85.585,14.096h-6.124c-0.228-0.011-0.397-0.071-0.505-0.18c-0.12-0.12-0.177-0.268-0.171-0.445V7.048
				c0.005-0.211,0.063-0.376,0.171-0.496c0.125-0.12,0.294-0.18,0.505-0.18h6.124c0.199,0,0.353,0.063,0.462,0.188
				c0.097,0.131,0.148,0.294,0.154,0.488v6.424c0,0.188-0.054,0.337-0.162,0.445C85.913,14.036,85.762,14.096,85.585,14.096z
				 M85.32,6.877h-5.714c-0.108,0.006-0.191,0.037-0.248,0.094c-0.051,0.063-0.074,0.14-0.068,0.231v6.013
				c-0.006,0.125,0.02,0.222,0.077,0.291c0.057,0.057,0.137,0.085,0.239,0.085h5.714c0.12,0,0.214-0.037,0.282-0.111
				c0.063-0.069,0.094-0.157,0.094-0.265V7.202c-0.006-0.108-0.034-0.188-0.085-0.24C85.542,6.9,85.446,6.871,85.32,6.877z
				 M80.898,12.06h-0.975c-0.08-0.006-0.14-0.029-0.18-0.069c-0.04-0.04-0.06-0.097-0.06-0.171c0-0.068,0.02-0.122,0.06-0.162
				c0.046-0.046,0.106-0.069,0.18-0.069h3.926v-0.385c0-0.04,0.003-0.071,0.009-0.094l-3.721,0.205
				c-0.091,0.006-0.157-0.011-0.197-0.051c-0.051-0.046-0.08-0.103-0.085-0.171c-0.006-0.08,0.011-0.146,0.051-0.197
				c0.051-0.051,0.12-0.08,0.205-0.086l2.096-0.12v-0.376h-1.523c-0.222-0.011-0.376-0.071-0.462-0.18
				c-0.097-0.125-0.143-0.268-0.137-0.428V8.836c0.005-0.177,0.063-0.319,0.171-0.428c0.108-0.12,0.251-0.177,0.428-0.171h1.523
				V7.886h-2.25c-0.08-0.006-0.14-0.029-0.18-0.069c-0.04-0.04-0.06-0.097-0.06-0.171c0-0.069,0.02-0.123,0.06-0.163
				c0.045-0.045,0.105-0.068,0.18-0.068h2.25V7.133c0-0.085,0.02-0.148,0.06-0.188c0.051-0.045,0.114-0.068,0.188-0.068
				c0.068,0.006,0.128,0.029,0.18,0.068c0.051,0.051,0.077,0.114,0.077,0.188v0.282h2.207c0.074,0,0.131,0.02,0.171,0.06
				c0.04,0.04,0.06,0.097,0.06,0.171c0,0.068-0.02,0.123-0.06,0.162c-0.046,0.051-0.103,0.077-0.171,0.077h-2.207v0.351h1.557
				c0.182-0.006,0.328,0.051,0.436,0.171c0.103,0.114,0.157,0.257,0.163,0.428v0.873c0,0.177-0.054,0.319-0.163,0.428
				c-0.023,0.011-0.037,0.026-0.043,0.043l0.026,0.026c0.439,0.479,0.659,0.838,0.659,1.078c-0.023,0.063-0.063,0.114-0.12,0.154
				c-0.074,0.04-0.14,0.051-0.197,0.034c-0.057-0.028-0.165-0.165-0.325-0.411l-0.376,0.026c0.017,0.04,0.026,0.08,0.026,0.12v0.385
				h0.941c0.074,0,0.131,0.02,0.171,0.06c0.04,0.04,0.06,0.097,0.06,0.171c0,0.069-0.02,0.123-0.06,0.163
				c-0.046,0.051-0.103,0.077-0.171,0.077h-0.941v0.257c0,0.308-0.103,0.585-0.308,0.829c-0.257,0.263-0.744,0.34-1.463,0.231
				c-0.091-0.034-0.154-0.08-0.188-0.137c-0.034-0.068-0.04-0.14-0.017-0.214c0.057-0.165,0.174-0.222,0.351-0.171
				c0.525,0.04,0.864-0.028,1.018-0.205c0.068-0.103,0.103-0.251,0.103-0.445V12.06h-2.746c0.023,0.006,0.046,0.02,0.069,0.043
				c0.519,0.451,0.775,0.738,0.77,0.864c0,0.063-0.026,0.123-0.077,0.18c-0.063,0.04-0.123,0.06-0.18,0.06
				c-0.074-0.006-0.137-0.043-0.188-0.111c-0.097-0.108-0.214-0.225-0.351-0.351c-0.257-0.228-0.385-0.371-0.385-0.428
				c-0.011-0.063,0.003-0.123,0.043-0.18C80.827,12.103,80.858,12.077,80.898,12.06z M82.207,9.058V8.707h-1.343
				c-0.091-0.006-0.163,0.02-0.214,0.077c-0.04,0.046-0.06,0.111-0.06,0.197v0.077H82.207z M82.207,9.845V9.528H80.59
				c0,0.103,0.02,0.182,0.06,0.24c0.04,0.051,0.111,0.077,0.214,0.077H82.207z M82.711,8.707v0.351h1.651V8.981
				c0-0.074-0.026-0.14-0.077-0.197c-0.051-0.051-0.131-0.077-0.24-0.077H82.711z M82.711,9.528v0.317h1.334
				c0.097-0.006,0.174-0.034,0.231-0.086c0.051-0.063,0.08-0.14,0.086-0.231H82.711z M84.242,10.461
				c-0.051-0.045-0.08-0.094-0.085-0.145h-1.445v0.351l1.634-0.094C84.311,10.532,84.277,10.495,84.242,10.461z"/>
			<path fill="#3E3A39" d="M88.776,11.059c0.029-0.08,0.071-0.137,0.128-0.171c0.057-0.034,0.122-0.043,0.197-0.026
				c0.068,0.029,0.12,0.068,0.154,0.12c0.028,0.074,0.031,0.148,0.008,0.223c-0.228,0.684-0.465,1.24-0.71,1.668
				c-0.456,0.793-0.796,1.206-1.018,1.24c-0.068-0.011-0.128-0.037-0.18-0.077c-0.114-0.143-0.111-0.268,0.009-0.376
				C88.031,12.918,88.502,12.052,88.776,11.059z M87.595,9.212c-0.08-0.04-0.128-0.094-0.145-0.162
				c-0.023-0.057-0.017-0.12,0.017-0.188c0.034-0.069,0.085-0.111,0.154-0.128c0.063-0.017,0.131-0.008,0.205,0.026
				c0.365,0.183,0.738,0.439,1.121,0.77c0.063,0.057,0.097,0.12,0.103,0.188c0,0.069-0.02,0.131-0.06,0.188
				c-0.057,0.063-0.114,0.094-0.171,0.094c-0.068,0.006-0.137-0.02-0.205-0.077C88.265,9.608,87.926,9.372,87.595,9.212z
				 M87.852,6.911c-0.074-0.046-0.12-0.103-0.137-0.171c-0.012-0.063,0.003-0.128,0.043-0.197c0.034-0.069,0.085-0.106,0.154-0.111
				c0.068-0.011,0.137,0.003,0.205,0.043c0.354,0.211,0.713,0.505,1.078,0.881c0.063,0.068,0.094,0.131,0.094,0.188
				c0,0.069-0.026,0.131-0.077,0.188c-0.051,0.057-0.111,0.083-0.18,0.077c-0.063-0.006-0.128-0.037-0.197-0.094
				C88.505,7.367,88.177,7.099,87.852,6.911z M94.515,13.523l-5.098,0.479c-0.097,0.006-0.171-0.011-0.222-0.051
				c-0.057-0.051-0.089-0.114-0.094-0.188c0-0.08,0.02-0.148,0.06-0.205c0.051-0.057,0.122-0.088,0.214-0.094l0.624-0.043
				c0.587-0.975,1.115-2.039,1.582-3.191h-1.839c-0.086-0.005-0.148-0.028-0.188-0.068c-0.046-0.051-0.068-0.114-0.068-0.188
				c0.005-0.068,0.028-0.128,0.068-0.18c0.051-0.046,0.114-0.069,0.188-0.069h2.181V7.903h-1.976
				c-0.085-0.006-0.148-0.029-0.188-0.069c-0.046-0.051-0.069-0.114-0.069-0.188c0.006-0.069,0.029-0.128,0.069-0.18
				c0.051-0.045,0.114-0.068,0.188-0.068h1.976V6.381c0-0.085,0.02-0.148,0.06-0.188c0.051-0.046,0.114-0.069,0.188-0.069
				c0.068,0.006,0.128,0.029,0.18,0.069c0.051,0.051,0.077,0.114,0.077,0.188v1.018h2.275c0.08,0,0.14,0.02,0.18,0.06
				c0.046,0.051,0.069,0.114,0.069,0.188c-0.006,0.068-0.029,0.128-0.069,0.18c-0.046,0.051-0.106,0.077-0.18,0.077h-2.275v1.822
				h2.549c0.08,0,0.14,0.02,0.18,0.06c0.046,0.051,0.069,0.114,0.069,0.188c-0.006,0.069-0.029,0.128-0.069,0.18
				c-0.046,0.051-0.106,0.077-0.18,0.077H92.12c-0.319,0.838-0.832,1.885-1.54,3.139l3.729-0.299
				c-0.263-0.547-0.547-1.029-0.855-1.445c-0.046-0.068-0.066-0.137-0.06-0.205c0.017-0.069,0.054-0.123,0.111-0.163
				c0.057-0.04,0.12-0.057,0.188-0.051c0.069,0.017,0.128,0.06,0.18,0.128c0.496,0.679,0.941,1.525,1.334,2.54
				c0.029,0.085,0.031,0.157,0.008,0.214c-0.023,0.068-0.068,0.114-0.137,0.137c-0.074,0.029-0.14,0.031-0.197,0.008
				c-0.063-0.029-0.111-0.085-0.145-0.171C94.663,13.874,94.589,13.694,94.515,13.523z"/>
			<path fill="#3E3A39" d="M100.023,9.195c-0.011,0.029-0.02,0.06-0.026,0.094c-0.53,1.956-1.508,3.481-2.934,4.576
				c-0.508,0.331-0.816,0.479-0.924,0.445c-0.068-0.017-0.123-0.06-0.162-0.128c-0.034-0.069-0.043-0.137-0.026-0.205
				c0.028-0.074,0.08-0.131,0.154-0.171c0.194-0.097,0.411-0.234,0.65-0.411c0.53-0.376,1.052-0.901,1.565-1.574
				c0.011-0.023,0.026-0.043,0.043-0.06c0.918-1.346,1.377-2.911,1.377-4.696V6.449c0-0.091,0.026-0.165,0.077-0.223
				c0.051-0.045,0.114-0.071,0.188-0.077c0.074,0,0.137,0.026,0.188,0.077c0.057,0.057,0.085,0.131,0.085,0.223v0.616
				c-0.011,0.057-0.017,0.12-0.017,0.188c-0.006,0.895,0.137,1.702,0.428,2.421c0.582,1.648,1.671,3.002,3.268,4.063
				c0.08,0.063,0.122,0.137,0.128,0.222c0.011,0.074-0.008,0.148-0.06,0.223c-0.057,0.068-0.123,0.105-0.197,0.111
				c-0.085,0.011-0.171-0.017-0.257-0.085C101.691,12.782,100.508,11.111,100.023,9.195z"/>
		</g>
		<g>
			<path fill="#3E3A39" d="M110.725,12.81h-5.432c-0.196,0-0.342-0.056-0.435-0.168c-0.103-0.103-0.154-0.243-0.154-0.421
				c0.009-0.159,0.061-0.295,0.154-0.407c0.112-0.112,0.257-0.169,0.435-0.169h5.432c0-0.402,0-0.8,0-1.193h-3.944
				c-0.29-0.009-0.524-0.103-0.702-0.281c-0.206-0.206-0.304-0.435-0.295-0.688V5.399c0-0.271,0.103-0.51,0.309-0.716
				c0.196-0.196,0.426-0.29,0.688-0.281h3.944c0-0.346,0-0.688,0-1.024h-5.039c-0.196,0-0.342-0.056-0.435-0.168
				c-0.103-0.103-0.154-0.243-0.154-0.421c0.009-0.159,0.061-0.295,0.154-0.407c0.112-0.112,0.257-0.168,0.435-0.168h5.039
				c0-0.533,0.056-0.856,0.168-0.969c0.112-0.112,0.267-0.168,0.463-0.168c0.178,0,0.328,0.056,0.449,0.168
				c0.131,0.141,0.197,0.463,0.197,0.969h4.968c0.188,0.009,0.328,0.061,0.421,0.154c0.103,0.103,0.154,0.243,0.154,0.421
				c-0.009,0.159-0.061,0.295-0.154,0.407c-0.103,0.122-0.243,0.183-0.421,0.183h-4.968c0,0.337,0,0.679,0,1.024h4.042
				c0.29,0,0.524,0.103,0.701,0.309c0.159,0.206,0.243,0.435,0.253,0.688v4.084c0,0.253-0.089,0.477-0.267,0.674
				c-0.206,0.196-0.435,0.295-0.687,0.295h-4.042c0,0.393,0,0.791,0,1.193h5.417c0.188,0.009,0.328,0.061,0.421,0.154
				c0.103,0.103,0.155,0.243,0.155,0.421c-0.01,0.159-0.062,0.295-0.155,0.407c-0.103,0.122-0.243,0.183-0.421,0.183h-5.417
				c0,0.374,0,0.758,0,1.151c-0.009,0.215-0.075,0.384-0.197,0.505c-0.102,0.121-0.252,0.187-0.449,0.196
				c-0.178-0.009-0.327-0.07-0.449-0.183c-0.121-0.14-0.182-0.313-0.182-0.519C110.725,13.567,110.725,13.184,110.725,12.81z
				 M110.725,6.873c0-0.44,0-0.875,0-1.305h-3.256c-0.141,0-0.244,0.042-0.309,0.126c-0.075,0.075-0.108,0.173-0.098,0.295v0.884
				H110.725z M110.725,9.287c0-0.43,0-0.847,0-1.249h-3.663v0.8c0,0.122,0.033,0.229,0.098,0.323
				c0.084,0.084,0.187,0.126,0.309,0.126H110.725z M112.001,5.568c0,0.44,0,0.875,0,1.305h3.719V5.989
				c0-0.14-0.042-0.243-0.126-0.309c-0.093-0.075-0.202-0.112-0.323-0.112H112.001z M112.001,8.038c0,0.412,0,0.828,0,1.249h3.27
				c0.131-0.019,0.238-0.061,0.323-0.126c0.075-0.075,0.116-0.182,0.126-0.323v-0.8H112.001z"/>
			<path fill="#3E3A39" d="M120.913,12.669h-1.474c-0.178-0.009-0.313-0.061-0.407-0.154c-0.103-0.103-0.154-0.239-0.154-0.407
				c0.009-0.149,0.061-0.281,0.154-0.393c0.093-0.103,0.229-0.154,0.407-0.154h1.474c0-0.374,0-0.734,0-1.081h-1.193
				c-0.206-0.009-0.37-0.089-0.491-0.238c-0.14-0.187-0.206-0.384-0.196-0.59V5.076c-0.009-0.187,0.056-0.351,0.196-0.491
				c0.131-0.141,0.295-0.211,0.491-0.211h1.193c0-0.346,0-0.688,0-1.024h-1.418c-0.178-0.009-0.313-0.061-0.407-0.155
				c-0.103-0.103-0.155-0.239-0.155-0.407c0.009-0.15,0.061-0.281,0.155-0.393c0.093-0.103,0.229-0.154,0.407-0.154h1.418
				c0-0.543,0.042-0.856,0.126-0.941c0.093-0.093,0.215-0.14,0.365-0.14c0.14,0,0.257,0.042,0.351,0.126
				c0.103,0.103,0.155,0.421,0.155,0.954h1.572c0.168,0,0.299,0.047,0.393,0.14c0.103,0.103,0.154,0.238,0.154,0.407
				c-0.009,0.15-0.061,0.281-0.154,0.393c-0.094,0.112-0.225,0.168-0.393,0.168h-1.572c0,0.337,0,0.678,0,1.024h1.053
				c0.253-0.009,0.454,0.061,0.604,0.211c0.141,0.122,0.215,0.285,0.225,0.491v4.575c0,0.215-0.089,0.407-0.267,0.575
				c-0.168,0.168-0.356,0.253-0.561,0.253h-1.053c0,0.356,0,0.716,0,1.081h1.684c0.168,0,0.299,0.047,0.393,0.14
				c0.103,0.103,0.154,0.239,0.154,0.407c-0.009,0.15-0.061,0.281-0.154,0.393c-0.094,0.113-0.225,0.169-0.393,0.169h-1.684
				c0,0.458,0,0.926,0,1.403c-0.009,0.169-0.061,0.3-0.155,0.393c-0.084,0.093-0.201,0.145-0.351,0.154
				c-0.141-0.009-0.257-0.056-0.351-0.14c-0.094-0.103-0.141-0.238-0.141-0.407C120.913,13.595,120.913,13.128,120.913,12.669z
				 M120.913,6.957c0-0.496,0-0.987,0-1.474h-0.534c-0.149-0.009-0.252,0.019-0.308,0.084c-0.075,0.094-0.108,0.201-0.098,0.323
				v1.066H120.913z M120.913,9.371c0-0.486,0-0.959,0-1.417h-0.94v1.01c0,0.14,0.033,0.243,0.098,0.309
				c0.065,0.066,0.168,0.098,0.308,0.098H120.913z M121.91,5.484c0,0.496,0,0.987,0,1.474h0.94V5.891
				c0-0.121-0.028-0.215-0.084-0.281c-0.066-0.084-0.168-0.126-0.309-0.126H121.91z M121.91,7.954c0,0.468,0,0.94,0,1.417h0.547
				c0.141-0.009,0.243-0.047,0.309-0.112c0.056-0.075,0.084-0.173,0.084-0.295v-1.01H121.91z M128.675,11.125
				c0,0.879,0,1.768,0,2.666c0,0.168-0.056,0.309-0.168,0.421c-0.094,0.093-0.216,0.145-0.365,0.154
				c-0.159-0.009-0.286-0.061-0.379-0.154c-0.093-0.103-0.14-0.244-0.14-0.421c0-0.861,0-1.712,0-2.554
				c-0.075-0.009-0.146-0.019-0.211-0.028c-0.206-0.103-0.477-0.842-0.814-2.218l-0.014-0.014c-0.299,1.375-0.547,2.105-0.744,2.189
				c-0.066,0.028-0.14,0.037-0.225,0.028v2.821c0,0.178-0.056,0.323-0.168,0.435c-0.093,0.103-0.225,0.159-0.393,0.168
				c-0.168-0.009-0.3-0.061-0.393-0.154c-0.103-0.122-0.155-0.271-0.155-0.449V4.684c0.009-0.253,0.103-0.482,0.281-0.688
				c0.187-0.206,0.426-0.304,0.716-0.295h2.119c0-0.318,0-0.622,0-0.912h-2.849c-0.178-0.009-0.313-0.061-0.407-0.154
				c-0.103-0.103-0.155-0.239-0.155-0.407c0.009-0.149,0.061-0.281,0.155-0.393c0.093-0.103,0.229-0.154,0.407-0.154h7.129
				c0.168,0,0.299,0.047,0.393,0.14c0.103,0.103,0.154,0.239,0.154,0.407c-0.009,0.15-0.061,0.281-0.154,0.393
				c-0.093,0.112-0.225,0.168-0.393,0.168h-3.228c0,0.299,0,0.603,0,0.912h2.386c0.253-0.009,0.482,0.089,0.687,0.295
				c0.215,0.206,0.323,0.44,0.323,0.702v8.547c0,0.515-0.182,0.898-0.547,1.151c-0.131,0.093-0.313,0.154-0.547,0.183
				c-0.926,0.028-1.488-0.098-1.684-0.379c-0.066-0.15-0.084-0.3-0.056-0.449c0.093-0.384,0.351-0.529,0.772-0.435
				c0.374,0.121,0.604,0.164,0.687,0.126c0.178-0.122,0.267-0.328,0.267-0.618v-1.642c-0.075-0.009-0.14-0.019-0.196-0.028
				c-0.122-0.075-0.197-0.168-0.225-0.281c-0.403-1.216-0.604-1.894-0.604-2.035c-0.009,0.047-0.019,0.098-0.028,0.154
				c-0.3,1.432-0.552,2.194-0.758,2.288c-0.093,0.037-0.187,0.042-0.281,0.014C128.777,11.247,128.712,11.191,128.675,11.125z
				 M127.243,8.206c0.047,0.309,0.173,0.772,0.379,1.389c0-1.609,0-3.204,0-4.786h-1.586c-0.122,0-0.225,0.042-0.309,0.126
				c-0.075,0.084-0.112,0.183-0.112,0.295v0.66h0.646c0.252,0.009,0.44,0.075,0.561,0.196c0.149,0.168,0.229,0.37,0.238,0.604
				C127.089,7.196,127.149,7.701,127.243,8.206z M126.022,8.627c0.084-0.421,0.154-0.983,0.21-1.684
				c-0.093-0.037-0.182-0.056-0.266-0.056h-0.351v3.088C125.793,9.451,125.928,9.002,126.022,8.627z M130.611,8.122
				c0.037,0.309,0.154,0.749,0.351,1.319V5.175c-0.009-0.112-0.047-0.201-0.112-0.267c-0.075-0.065-0.159-0.098-0.252-0.098h-1.923
				c0,0.328,0,0.65,0,0.968h0.954c0.253,0,0.44,0.07,0.561,0.21c0.15,0.159,0.229,0.356,0.238,0.59
				C130.457,7.093,130.517,7.607,130.611,8.122z M129.334,8.711c0.112-0.468,0.187-1.099,0.225-1.895
				c-0.056-0.028-0.131-0.042-0.225-0.042h-0.66c0,1.31,0,2.639,0,3.986C129.002,9.956,129.222,9.273,129.334,8.711z"/>
			<path fill="#3E3A39" d="M137.601,13.848h-2.105c-0.253-0.009-0.449-0.103-0.59-0.281c-0.168-0.215-0.248-0.449-0.238-0.702V8.459
				c-0.3,0.43-0.524,0.664-0.674,0.702c-0.159,0.028-0.314-0.004-0.463-0.098c-0.327-0.262-0.365-0.562-0.112-0.898
				c1.048-1.619,1.698-3.373,1.951-5.263h-1.334c-0.187,0-0.337-0.056-0.449-0.168c-0.112-0.121-0.168-0.271-0.168-0.449
				c0-0.168,0.056-0.313,0.168-0.435c0.122-0.112,0.271-0.168,0.449-0.168h4.379c0.177,0.009,0.323,0.061,0.435,0.154
				c0.112,0.122,0.168,0.271,0.168,0.449c0,0.168-0.056,0.314-0.168,0.435c-0.112,0.122-0.258,0.182-0.435,0.182h-1.824
				c-0.187,1.086-0.412,2.026-0.674,2.821h1.684c0.29-0.009,0.533,0.075,0.73,0.253c0.159,0.159,0.243,0.356,0.253,0.589v6.302
				c0,0.253-0.103,0.482-0.309,0.688C138.078,13.74,137.853,13.839,137.601,13.848z M136.885,6.943h-0.519
				c-0.178,0.009-0.299,0.047-0.365,0.112c-0.084,0.103-0.122,0.229-0.112,0.379v4.716c0.009,0.15,0.047,0.266,0.112,0.351
				c0.093,0.084,0.215,0.126,0.365,0.126h0.519c0.159,0,0.281-0.042,0.365-0.126c0.065-0.084,0.103-0.201,0.112-0.351V7.434
				c0-0.159-0.033-0.271-0.098-0.337C137.179,6.995,137.053,6.943,136.885,6.943z M144.155,7.898h-2.33
				c-0.103,2.554-0.651,4.533-1.642,5.937c-0.337,0.393-0.622,0.585-0.856,0.575c-0.159-0.009-0.308-0.084-0.449-0.225
				c-0.252-0.365-0.211-0.679,0.126-0.941c1.067-1.066,1.6-2.849,1.6-5.347h-0.898c-0.187,0-0.337-0.056-0.449-0.169
				c-0.112-0.121-0.168-0.271-0.168-0.449c0-0.168,0.056-0.313,0.168-0.435c0.122-0.112,0.271-0.168,0.449-0.168h0.912V2.957h-0.632
				c-0.187,0-0.337-0.056-0.449-0.168c-0.112-0.121-0.168-0.271-0.168-0.449c0-0.168,0.056-0.313,0.168-0.435
				c0.122-0.112,0.271-0.168,0.449-0.168h6.007c0.178,0.009,0.323,0.061,0.435,0.154c0.112,0.122,0.168,0.271,0.168,0.449
				c0,0.168-0.056,0.314-0.168,0.435c-0.112,0.122-0.257,0.182-0.435,0.182h-0.617c0,1.235,0,2.475,0,3.719h0.842
				c0.178,0.009,0.323,0.061,0.435,0.154c0.112,0.122,0.168,0.271,0.168,0.449c0,0.168-0.056,0.314-0.168,0.435
				c-0.112,0.122-0.257,0.183-0.435,0.183h-0.842c0,2.012,0,4.033,0,6.063c0,0.197-0.061,0.356-0.182,0.477
				c-0.112,0.112-0.258,0.173-0.435,0.182c-0.168,0-0.314-0.056-0.435-0.168c-0.112-0.122-0.168-0.285-0.168-0.491
				C144.155,11.921,144.155,9.9,144.155,7.898z M144.155,6.676c0-1.244,0-2.484,0-3.719h-2.316v3.719H144.155z"/>
			<path fill="#3E3A39" d="M152.322,9.329h-3.298c-0.234-0.009-0.412-0.075-0.533-0.196c-0.112-0.121-0.173-0.271-0.182-0.449
				c0.018-0.196,0.084-0.351,0.196-0.463c0.141-0.112,0.313-0.168,0.52-0.168h3.438c0.018-0.253,0.028-0.51,0.028-0.772V6.775
				c0-0.225,0.061-0.398,0.183-0.519c0.103-0.121,0.252-0.187,0.449-0.196c0.177,0.009,0.327,0.07,0.449,0.182
				c0.131,0.131,0.197,0.309,0.197,0.533V7.28c-0.009,0.262-0.019,0.519-0.028,0.772h3.228c0.337,0,0.631,0.117,0.884,0.351
				c0.233,0.243,0.351,0.538,0.351,0.884v3.284c-0.009,0.122,0.033,0.229,0.126,0.323c0.112,0.094,0.225,0.145,0.337,0.154h0.576
				c0.168,0,0.295-0.047,0.379-0.14c0.075-0.093,0.112-0.215,0.112-0.365v-1.558c0-0.234,0.061-0.412,0.182-0.533
				c0.122-0.112,0.271-0.173,0.449-0.182c0.206,0.019,0.356,0.084,0.449,0.196c0.131,0.14,0.197,0.313,0.197,0.519v2.035
				c-0.066,0.543-0.267,0.912-0.604,1.109c-0.216,0.131-0.449,0.197-0.702,0.197h-1.403c-0.533-0.047-0.926-0.286-1.179-0.716
				c-0.14-0.215-0.206-0.44-0.196-0.674V9.82c0-0.121-0.042-0.238-0.127-0.351c-0.093-0.094-0.215-0.141-0.365-0.141h-2.793
				c-0.262,1.872-1.137,3.256-2.624,4.154c-0.683,0.374-1.446,0.65-2.288,0.828c-0.215,0.075-0.407,0.07-0.575-0.014
				c-0.168-0.066-0.286-0.197-0.351-0.393c-0.047-0.187-0.037-0.356,0.028-0.505c0.084-0.178,0.238-0.299,0.463-0.365
				c0.87-0.206,1.563-0.468,2.077-0.786C151.419,11.65,152.07,10.676,152.322,9.329z M155.438,3.463h-2.246
				c-0.047,0.561-0.145,1.085-0.295,1.572c-0.365,1.038-1.071,1.74-2.119,2.105c-0.617,0.243-1.347,0.398-2.189,0.463
				c-0.206,0.019-0.379-0.019-0.52-0.112c-0.122-0.103-0.196-0.239-0.225-0.407c-0.028-0.412,0.168-0.645,0.59-0.702
				c1.394-0.103,2.358-0.421,2.891-0.954c0.412-0.44,0.646-1.095,0.702-1.965h-2.316c-0.103-0.009-0.201,0.028-0.295,0.112
				c-0.084,0.094-0.122,0.196-0.112,0.309v0.982c0,0.206-0.061,0.37-0.183,0.491c-0.122,0.113-0.267,0.169-0.435,0.169
				c-0.196-0.009-0.341-0.07-0.435-0.183c-0.112-0.121-0.168-0.281-0.168-0.477V3.364c-0.019-0.299,0.088-0.566,0.322-0.8
				c0.243-0.225,0.506-0.332,0.786-0.323h4.645c0-0.552,0.056-0.884,0.168-0.997c0.112-0.112,0.267-0.168,0.463-0.168
				c0.178,0,0.327,0.056,0.449,0.168c0.131,0.131,0.197,0.463,0.197,0.997h4.519c0.206,0.009,0.407,0.061,0.604,0.154
				c0.299,0.253,0.463,0.636,0.491,1.151c-0.009,0.72-0.112,1.207-0.309,1.46c0.037,0,0.075,0.005,0.112,0.014
				c0.159,0.037,0.286,0.112,0.379,0.225c0.084,0.159,0.107,0.328,0.07,0.505c-0.047,0.253-0.075,0.421-0.084,0.505
				c-0.084,0.365-0.337,0.664-0.758,0.898c-0.281,0.112-1.029,0.168-2.246,0.168c-0.907,0-1.515-0.098-1.824-0.295
				c-0.421-0.299-0.631-0.688-0.631-1.165V3.463z M159.845,5.54c0.018-0.131,0.056-0.229,0.112-0.295
				c-0.084-0.009-0.146-0.019-0.183-0.028c-0.402-0.14-0.533-0.412-0.393-0.814c0.066-0.346,0.079-0.58,0.042-0.702
				c-0.056-0.168-0.173-0.248-0.351-0.238h-2.414V5.47c0.009,0.196,0.075,0.356,0.197,0.477c0.121,0.122,0.281,0.187,0.477,0.196
				c0.496,0,0.973,0,1.432,0c0.599-0.009,0.954-0.154,1.066-0.435C159.831,5.689,159.836,5.633,159.845,5.54z"/>
			<path fill="#3E3A39" d="M163.942,9.048c0.047-0.196,0.141-0.337,0.281-0.421c0.121-0.075,0.266-0.098,0.435-0.07
				c0.159,0.047,0.281,0.131,0.365,0.253c0.075,0.159,0.093,0.328,0.056,0.505c-0.309,1.338-0.875,2.896-1.698,4.673
				c-0.084,0.187-0.211,0.309-0.379,0.365c-0.14,0.056-0.295,0.051-0.463-0.014c-0.15-0.084-0.257-0.196-0.323-0.337
				c-0.047-0.178-0.028-0.356,0.056-0.533C163.124,11.673,163.681,10.199,163.942,9.048z M162.581,6.382
				c-0.178-0.112-0.295-0.243-0.351-0.393c-0.047-0.159-0.028-0.313,0.056-0.463c0.094-0.169,0.216-0.271,0.365-0.309
				c0.159-0.047,0.327-0.023,0.505,0.07c0.486,0.262,1.015,0.636,1.586,1.123c0.159,0.15,0.243,0.3,0.253,0.449
				c0.018,0.159-0.033,0.314-0.155,0.463c-0.131,0.14-0.272,0.21-0.421,0.21c-0.159,0.009-0.323-0.056-0.491-0.196
				C163.396,6.896,162.946,6.578,162.581,6.382z M162.89,2.887c-0.187-0.103-0.3-0.239-0.337-0.407
				c-0.037-0.159-0.009-0.313,0.084-0.463c0.093-0.159,0.215-0.257,0.365-0.295c0.168-0.028,0.342,0.005,0.52,0.098
				c1.104,0.683,1.67,1.212,1.698,1.586c0.009,0.159-0.047,0.309-0.168,0.449c-0.141,0.131-0.286,0.196-0.435,0.196
				c-0.159,0-0.323-0.07-0.491-0.21C163.648,3.402,163.236,3.084,162.89,2.887z M166.286,11.995
				c0.112-0.149,0.243-0.238,0.393-0.267c0.141-0.028,0.281,0.005,0.421,0.098c0.121,0.094,0.196,0.211,0.225,0.351
				c0.028,0.168-0.019,0.328-0.141,0.477c-0.318,0.43-0.772,0.875-1.361,1.333c-0.543,0.393-0.926,0.557-1.151,0.491
				c-0.141-0.047-0.253-0.14-0.337-0.281c-0.066-0.15-0.08-0.295-0.042-0.435c0.056-0.15,0.173-0.266,0.351-0.351
				C165.262,13.039,165.809,12.566,166.286,11.995z M169.529,11.322h-3.13c-0.243-0.009-0.426-0.098-0.547-0.267
				c-0.159-0.206-0.234-0.426-0.225-0.66V2.41c0-0.215,0.075-0.398,0.225-0.547c0.159-0.159,0.341-0.239,0.547-0.239h3.13
				c0.271-0.009,0.496,0.07,0.674,0.239c0.15,0.14,0.229,0.323,0.238,0.547v7.985c0,0.253-0.098,0.468-0.295,0.646
				C169.968,11.219,169.762,11.313,169.529,11.322z M166.792,4.543h2.484V3.182c0-0.14-0.033-0.243-0.098-0.309
				c-0.075-0.093-0.187-0.14-0.337-0.14h-1.6c-0.168,0-0.281,0.033-0.337,0.098c-0.084,0.094-0.122,0.211-0.112,0.351V4.543z
				 M166.792,7.294h2.484V5.652h-2.484V7.294z M169.276,8.403h-2.484v1.361c0.009,0.159,0.047,0.271,0.112,0.337
				c0.075,0.075,0.187,0.113,0.337,0.113h1.6c0.159-0.019,0.271-0.061,0.337-0.126c0.066-0.065,0.098-0.173,0.098-0.323V8.403z
				 M169.009,12.641c-0.15-0.141-0.225-0.285-0.225-0.435c-0.019-0.14,0.028-0.281,0.141-0.421c0.112-0.113,0.243-0.173,0.393-0.183
				c0.159-0.009,0.313,0.056,0.463,0.196c1.029,1.048,1.539,1.726,1.53,2.035c-0.028,0.14-0.103,0.266-0.225,0.379
				c-0.141,0.084-0.286,0.121-0.435,0.112c-0.159-0.037-0.295-0.131-0.407-0.281C169.935,13.623,169.524,13.156,169.009,12.641z
				 M172.686,2.677c0,2.667,0,5.324,0,7.972c0,0.187-0.061,0.342-0.182,0.463c-0.094,0.103-0.23,0.159-0.407,0.168
				c-0.159-0.009-0.295-0.061-0.407-0.154c-0.112-0.122-0.168-0.281-0.168-0.477c0-2.666,0-5.324,0-7.972
				c0.009-0.196,0.061-0.341,0.154-0.435c0.103-0.103,0.243-0.154,0.421-0.154c0.159,0.009,0.295,0.061,0.407,0.154
				C172.625,2.354,172.686,2.499,172.686,2.677z M173.711,1.722c0-0.196,0.056-0.356,0.168-0.477
				c0.093-0.103,0.229-0.159,0.407-0.168c0.159,0.009,0.295,0.061,0.407,0.155c0.122,0.122,0.183,0.286,0.183,0.491v11.312
				c-0.019,0.533-0.225,0.926-0.618,1.179c-0.252,0.168-0.72,0.206-1.403,0.112c-0.674-0.122-1.066-0.3-1.179-0.533
				c-0.056-0.14-0.066-0.285-0.028-0.435c0.066-0.169,0.168-0.281,0.309-0.337c0.15-0.075,0.313-0.079,0.491-0.014
				c0.421,0.14,0.72,0.21,0.898,0.21c0.093,0,0.173-0.033,0.238-0.098c0.084-0.075,0.127-0.201,0.127-0.379V1.722z"/>
			<path fill="#3E3A39" d="M176.981,3.448h3.874c0.187,0.009,0.327,0.061,0.421,0.154c0.103,0.103,0.154,0.243,0.154,0.421
				c-0.009,0.159-0.061,0.295-0.154,0.407c-0.103,0.122-0.243,0.183-0.421,0.183h-3.874c-0.196,0-0.342-0.056-0.435-0.169
				c-0.103-0.103-0.154-0.243-0.154-0.421c0.009-0.159,0.061-0.295,0.154-0.407C176.658,3.505,176.803,3.448,176.981,3.448z
				 M180.139,14.016h-2.569c-0.243-0.009-0.426-0.098-0.547-0.266c-0.159-0.206-0.234-0.426-0.225-0.66V9.764
				c0-0.215,0.075-0.398,0.225-0.547c0.159-0.159,0.341-0.238,0.547-0.238h2.569c0.271-0.009,0.496,0.07,0.674,0.238
				c0.15,0.141,0.229,0.323,0.238,0.547v3.326c0,0.253-0.098,0.468-0.295,0.645C180.579,13.913,180.372,14.007,180.139,14.016z
				 M177.542,1.596h2.919c0.187,0.009,0.328,0.061,0.421,0.155c0.103,0.103,0.154,0.243,0.154,0.421
				c-0.009,0.159-0.061,0.295-0.154,0.407c-0.103,0.122-0.243,0.182-0.421,0.182h-2.919c-0.196,0-0.341-0.056-0.435-0.168
				c-0.103-0.103-0.155-0.243-0.155-0.421c0.009-0.159,0.061-0.295,0.155-0.407C177.22,1.652,177.364,1.596,177.542,1.596z
				 M177.542,5.273h2.863c0.168,0,0.299,0.047,0.393,0.141c0.103,0.103,0.154,0.238,0.154,0.407
				c-0.009,0.15-0.061,0.281-0.154,0.393c-0.093,0.112-0.225,0.168-0.393,0.168h-2.863c-0.178-0.009-0.313-0.061-0.407-0.154
				c-0.103-0.103-0.154-0.239-0.154-0.407c0.009-0.149,0.061-0.281,0.154-0.393C177.229,5.325,177.364,5.273,177.542,5.273z
				 M177.542,7.07h2.863c0.168,0,0.299,0.047,0.393,0.14c0.103,0.103,0.154,0.238,0.154,0.407c-0.009,0.15-0.061,0.281-0.154,0.393
				c-0.093,0.112-0.225,0.168-0.393,0.168h-2.863c-0.178-0.009-0.313-0.061-0.407-0.155c-0.103-0.103-0.154-0.238-0.154-0.407
				c0.009-0.15,0.061-0.281,0.154-0.393C177.229,7.121,177.364,7.07,177.542,7.07z M179.451,10.087h-1.039
				c-0.168,0-0.281,0.033-0.337,0.098c-0.084,0.094-0.122,0.21-0.112,0.351v1.923c0.009,0.159,0.047,0.271,0.112,0.337
				c0.075,0.075,0.187,0.112,0.337,0.112h1.039c0.159-0.019,0.271-0.061,0.337-0.126c0.066-0.065,0.098-0.173,0.098-0.323v-1.923
				c0-0.14-0.033-0.243-0.098-0.309C179.713,10.134,179.6,10.087,179.451,10.087z M182.833,12.304V7.42h-0.912
				c-0.197,0-0.342-0.056-0.435-0.168c-0.103-0.103-0.155-0.243-0.155-0.421c0.009-0.159,0.061-0.295,0.155-0.407
				c0.112-0.112,0.257-0.168,0.435-0.168h3.144c0.187,0.009,0.327,0.061,0.421,0.154c0.103,0.103,0.154,0.243,0.154,0.421
				c-0.009,0.159-0.061,0.295-0.154,0.407c-0.103,0.122-0.243,0.182-0.421,0.182h-1.01v4.519c0.496-0.178,0.889-0.342,1.179-0.491
				c0.168-0.075,0.327-0.093,0.477-0.056c0.14,0.047,0.252,0.154,0.337,0.323c0.075,0.15,0.093,0.309,0.056,0.477
				c-0.075,0.234-0.646,0.533-1.712,0.898c-0.74,0.234-1.521,0.44-2.344,0.617c-0.187,0.037-0.342,0.014-0.463-0.07
				c-0.15-0.094-0.239-0.225-0.267-0.393c-0.028-0.178-0.009-0.337,0.056-0.477c0.093-0.131,0.229-0.215,0.407-0.253
				C182.117,12.459,182.469,12.388,182.833,12.304z M185.584,4.501h-3.438c-0.197,0-0.342-0.056-0.435-0.168
				c-0.103-0.103-0.154-0.243-0.154-0.421c0.009-0.159,0.061-0.295,0.154-0.407c0.112-0.112,0.257-0.168,0.435-0.168h3.396
				c-0.018-0.533-0.023-1.071-0.014-1.614c0-0.206,0.056-0.37,0.168-0.491c0.112-0.131,0.257-0.192,0.435-0.183
				c0.168,0,0.313,0.056,0.435,0.168c0.122,0.131,0.182,0.3,0.182,0.505c0,0.561,0.005,1.099,0.014,1.614h2.4
				c0.187,0.009,0.327,0.061,0.421,0.154c0.103,0.103,0.154,0.243,0.154,0.421c-0.009,0.159-0.061,0.295-0.154,0.407
				c-0.103,0.122-0.243,0.182-0.421,0.182h-2.372c0.075,1.403,0.187,2.597,0.337,3.579c0.449,2.321,0.884,3.818,1.305,4.491
				c0.074,0.122,0.145,0.183,0.211,0.183c0.056,0,0.089-0.047,0.098-0.14c0.038-0.337,0.052-0.734,0.042-1.193
				c0-0.196,0.061-0.351,0.183-0.463c0.103-0.113,0.243-0.173,0.421-0.182c0.159,0.009,0.3,0.075,0.421,0.196
				c0.112,0.131,0.168,0.286,0.168,0.463c-0.056,1.647-0.243,2.587-0.561,2.821c-0.15,0.093-0.328,0.145-0.533,0.154
				c-0.29,0-0.524-0.084-0.702-0.253c-0.168-0.15-0.323-0.328-0.463-0.534C186.491,11.921,185.781,8.88,185.584,4.501z
				 M187.507,2.157c-0.15-0.131-0.229-0.281-0.238-0.449c0-0.149,0.061-0.285,0.182-0.407c0.122-0.131,0.257-0.196,0.407-0.196
				c0.15,0.009,0.3,0.075,0.45,0.196c0.636,0.655,0.935,1.123,0.898,1.403c-0.028,0.159-0.117,0.286-0.267,0.379
				c-0.14,0.103-0.286,0.136-0.435,0.098c-0.15-0.037-0.286-0.14-0.407-0.309C187.872,2.546,187.675,2.307,187.507,2.157z"/>
			<path fill="#3E3A39" d="M202.72,10.957h-4.463c0,0.964,0,1.928,0,2.891c-0.009,0.215-0.075,0.393-0.196,0.534
				c-0.122,0.121-0.281,0.187-0.477,0.196c-0.196-0.009-0.356-0.07-0.477-0.183c-0.122-0.14-0.183-0.323-0.183-0.547
				c0-0.973,0-1.937,0-2.891h-4.392c-0.328-0.009-0.618-0.131-0.87-0.365c-0.262-0.253-0.388-0.547-0.379-0.884V4.417
				c-0.009-0.346,0.112-0.645,0.365-0.898c0.243-0.234,0.538-0.351,0.884-0.351h4.392c0-0.468,0-0.931,0-1.389
				c0-0.206,0.056-0.37,0.168-0.491c0.122-0.121,0.286-0.183,0.491-0.183c0.187,0,0.342,0.061,0.463,0.183
				c0.14,0.122,0.21,0.286,0.21,0.491c0,0.468,0,0.931,0,1.389h4.463c0.375-0.009,0.679,0.117,0.912,0.379
				c0.206,0.243,0.313,0.533,0.323,0.87v5.291c-0.009,0.328-0.127,0.618-0.351,0.87C203.361,10.821,203.066,10.948,202.72,10.957z
				 M196.924,4.445h-3.859c-0.131-0.009-0.252,0.042-0.365,0.154c-0.094,0.112-0.141,0.229-0.141,0.351v4.252
				c0,0.131,0.047,0.243,0.141,0.337c0.103,0.094,0.225,0.14,0.365,0.14h3.859C196.924,7.911,196.924,6.167,196.924,4.445z
				 M202.201,4.445h-3.944c0,1.741,0,3.485,0,5.235h3.944c0.14,0,0.253-0.047,0.337-0.14c0.084-0.103,0.131-0.215,0.141-0.337V4.95
				c0-0.14-0.047-0.257-0.141-0.351C202.435,4.497,202.323,4.445,202.201,4.445z"/>
			<path fill="#3E3A39" d="M206.313,3.912c0-0.215,0.056-0.383,0.168-0.505c0.112-0.103,0.257-0.159,0.435-0.168
				c0.178-0.009,0.327,0.047,0.449,0.168c0.112,0.122,0.168,0.285,0.168,0.491c0.019,2.405-0.327,5.254-1.039,8.547
				c-0.056,0.206-0.145,0.356-0.267,0.449c-0.15,0.084-0.313,0.112-0.491,0.084c-0.178-0.037-0.309-0.126-0.393-0.267
				c-0.075-0.15-0.093-0.327-0.056-0.533C205.981,8.773,206.322,6.017,206.313,3.912z M208.741,2.789
				c0-0.225,0.061-0.397,0.182-0.519c0.103-0.122,0.253-0.187,0.449-0.197c0.178,0.009,0.328,0.07,0.449,0.183
				c0.131,0.131,0.196,0.309,0.196,0.533v9.151c0.009,0.215,0.075,0.426,0.197,0.632c0.112,0.187,0.299,0.309,0.561,0.365
				c0.309,0.084,0.889,0.126,1.74,0.126c0.197-0.009,0.379-0.014,0.547-0.014c0.899-0.047,1.474-0.281,1.727-0.702
				c0.15-0.299,0.225-1.057,0.225-2.274c0-0.215,0.061-0.383,0.182-0.505c0.112-0.121,0.267-0.187,0.463-0.196
				c0.178,0.009,0.328,0.07,0.45,0.183c0.121,0.131,0.182,0.309,0.182,0.533c0,1.319-0.033,2.147-0.098,2.484
				c-0.084,0.374-0.252,0.688-0.505,0.94c-0.328,0.327-0.688,0.538-1.081,0.632c-0.458,0.131-1.165,0.196-2.119,0.196
				c-1.02,0-1.815-0.061-2.386-0.182c-0.365-0.113-0.646-0.286-0.842-0.519c-0.374-0.477-0.547-1.011-0.519-1.6V2.789z
				 M211.281,2.087c-0.056-0.206-0.052-0.383,0.014-0.533c0.066-0.14,0.187-0.239,0.365-0.295c0.168-0.047,0.327-0.037,0.477,0.028
				c0.14,0.075,0.243,0.211,0.308,0.407c0.674,2.049,1.141,4.58,1.404,7.593c0.009,0.206-0.033,0.37-0.127,0.491
				c-0.103,0.131-0.243,0.21-0.421,0.238c-0.187,0.019-0.342-0.028-0.463-0.14c-0.131-0.121-0.201-0.285-0.211-0.491
				C212.301,6.298,211.852,3.865,211.281,2.087z M215.716,3.603c-0.056-0.206-0.051-0.383,0.014-0.533
				c0.065-0.131,0.187-0.229,0.365-0.295c0.168-0.047,0.323-0.037,0.463,0.028c0.149,0.075,0.257,0.211,0.323,0.407
				c0.786,2.377,1.347,5.319,1.684,8.828c0.019,0.206-0.019,0.37-0.112,0.491c-0.112,0.131-0.257,0.211-0.435,0.239
				c-0.178,0.009-0.327-0.033-0.449-0.126c-0.122-0.122-0.197-0.285-0.225-0.491C216.942,8.538,216.399,5.689,215.716,3.603z"/>
		</g>
	</g>
	<g>
		<path fill="#3E3A39" d="M69.338,22.44l2.404-6.259h0.893l2.562,6.259h-0.944l-0.73-1.896h-2.617l-0.687,1.896H69.338z
			 M71.144,19.869h2.122l-0.653-1.733c-0.199-0.527-0.347-0.959-0.444-1.298c-0.08,0.401-0.192,0.8-0.338,1.196L71.144,19.869z"/>
		<path fill="#3E3A39" d="M78.731,22.44v-0.666c-0.353,0.512-0.832,0.769-1.439,0.769c-0.268,0-0.517-0.051-0.749-0.154
			c-0.232-0.103-0.404-0.231-0.517-0.386c-0.112-0.155-0.191-0.345-0.237-0.57c-0.031-0.151-0.047-0.39-0.047-0.718v-2.809h0.769
			v2.515c0,0.401,0.016,0.672,0.047,0.811c0.048,0.202,0.151,0.361,0.307,0.476c0.156,0.115,0.35,0.173,0.581,0.173
			c0.23,0,0.447-0.059,0.649-0.177c0.202-0.118,0.345-0.279,0.429-0.482c0.084-0.204,0.126-0.499,0.126-0.886v-2.429h0.768v4.535
			H78.731z"/>
		<path fill="#3E3A39" d="M82.301,21.752l0.111,0.679c-0.216,0.045-0.41,0.068-0.581,0.068c-0.279,0-0.495-0.044-0.649-0.132
			c-0.154-0.088-0.262-0.204-0.325-0.348c-0.063-0.144-0.094-0.446-0.094-0.908v-2.609H80.2v-0.598h0.564v-1.123l0.764-0.461v1.584
			h0.773v0.598h-0.773v2.651c0,0.219,0.013,0.36,0.04,0.423c0.027,0.063,0.071,0.113,0.132,0.15
			c0.061,0.037,0.149,0.055,0.262,0.055C82.049,21.782,82.162,21.772,82.301,21.752z"/>
		<path fill="#3E3A39" d="M82.766,20.172c0-0.84,0.233-1.462,0.7-1.866c0.39-0.336,0.865-0.504,1.426-0.504
			c0.623,0,1.133,0.204,1.528,0.613c0.396,0.408,0.594,0.973,0.594,1.693c0,0.584-0.087,1.043-0.263,1.377
			c-0.175,0.334-0.43,0.594-0.764,0.779c-0.335,0.185-0.699,0.278-1.095,0.278c-0.635,0-1.148-0.204-1.539-0.611
			C82.962,21.525,82.766,20.938,82.766,20.172z M83.556,20.172c0,0.581,0.126,1.016,0.38,1.304c0.253,0.289,0.572,0.433,0.956,0.433
			c0.381,0,0.699-0.145,0.952-0.435c0.253-0.29,0.38-0.733,0.38-1.328c0-0.561-0.127-0.985-0.382-1.275
			c-0.255-0.289-0.572-0.433-0.95-0.433c-0.384,0-0.703,0.144-0.956,0.431C83.683,19.158,83.556,19.592,83.556,20.172z"/>
		<path fill="#3E3A39" d="M87.915,22.44v-4.535h0.687v0.636c0.142-0.222,0.332-0.401,0.568-0.536
			c0.236-0.135,0.505-0.203,0.807-0.203c0.336,0,0.611,0.07,0.826,0.209c0.215,0.14,0.367,0.335,0.455,0.585
			c0.359-0.53,0.826-0.794,1.4-0.794c0.45,0,0.796,0.124,1.038,0.374c0.242,0.249,0.363,0.633,0.363,1.151v3.113h-0.764v-2.856
			c0-0.307-0.025-0.529-0.075-0.664c-0.05-0.135-0.14-0.244-0.271-0.327c-0.131-0.083-0.285-0.124-0.461-0.124
			c-0.319,0-0.583,0.106-0.794,0.318c-0.211,0.212-0.316,0.552-0.316,1.018v2.634H90.61v-2.946c0-0.342-0.063-0.598-0.188-0.769
			c-0.125-0.171-0.33-0.256-0.615-0.256c-0.216,0-0.416,0.057-0.6,0.171c-0.184,0.114-0.317,0.28-0.399,0.5
			c-0.083,0.219-0.124,0.535-0.124,0.948v2.353H87.915z"/>
		<path fill="#3E3A39" d="M94.914,20.172c0-0.84,0.233-1.462,0.7-1.866c0.39-0.336,0.865-0.504,1.426-0.504
			c0.623,0,1.133,0.204,1.528,0.613c0.396,0.408,0.594,0.973,0.594,1.693c0,0.584-0.087,1.043-0.263,1.377
			c-0.175,0.334-0.43,0.594-0.764,0.779c-0.335,0.185-0.699,0.278-1.095,0.278c-0.635,0-1.148-0.204-1.539-0.611
			C95.109,21.525,94.914,20.938,94.914,20.172z M95.704,20.172c0,0.581,0.126,1.016,0.38,1.304c0.253,0.289,0.572,0.433,0.956,0.433
			c0.381,0,0.699-0.145,0.952-0.435c0.253-0.29,0.38-0.733,0.38-1.328c0-0.561-0.127-0.985-0.382-1.275
			c-0.255-0.289-0.571-0.433-0.95-0.433c-0.384,0-0.703,0.144-0.956,0.431C95.83,19.158,95.704,19.592,95.704,20.172z"/>
		<path fill="#3E3A39" d="M101.741,21.752l0.111,0.679c-0.216,0.045-0.41,0.068-0.581,0.068c-0.279,0-0.495-0.044-0.649-0.132
			c-0.154-0.088-0.262-0.204-0.325-0.348c-0.063-0.144-0.094-0.446-0.094-0.908v-2.609H99.64v-0.598h0.564v-1.123l0.764-0.461v1.584
			h0.773v0.598h-0.773v2.651c0,0.219,0.013,0.36,0.04,0.423c0.027,0.063,0.071,0.113,0.132,0.15
			c0.061,0.037,0.149,0.055,0.263,0.055C101.489,21.782,101.602,21.772,101.741,21.752z"/>
		<path fill="#3E3A39" d="M102.497,17.064V16.18h0.769v0.884H102.497z M102.497,22.44v-4.535h0.769v4.535H102.497z"/>
		<path fill="#3E3A39" d="M105.695,22.44l-1.725-4.535h0.811l0.974,2.716c0.105,0.293,0.202,0.598,0.29,0.914
			c0.068-0.239,0.164-0.526,0.286-0.862l1.008-2.767h0.79l-1.717,4.535H105.695z"/>
		<path fill="#3E3A39" d="M111.912,20.979l0.794,0.098c-0.126,0.464-0.358,0.824-0.696,1.08c-0.339,0.256-0.771,0.384-1.298,0.384
			c-0.663,0-1.189-0.204-1.578-0.613c-0.388-0.409-0.583-0.982-0.583-1.719c0-0.763,0.196-1.355,0.589-1.776
			c0.393-0.421,0.903-0.632,1.528-0.632c0.606,0,1.102,0.206,1.486,0.619c0.384,0.413,0.576,0.993,0.576,1.742
			c0,0.045-0.001,0.114-0.004,0.205h-3.382c0.028,0.498,0.169,0.879,0.423,1.144c0.253,0.265,0.569,0.397,0.948,0.397
			c0.282,0,0.522-0.074,0.722-0.222C111.637,21.54,111.795,21.304,111.912,20.979z M109.389,19.737h2.532
			c-0.034-0.381-0.131-0.668-0.291-0.858c-0.245-0.296-0.562-0.444-0.952-0.444c-0.353,0-0.65,0.118-0.89,0.354
			C109.547,19.025,109.414,19.341,109.389,19.737z"/>
		<path fill="#3E3A39" d="M116.211,22.44V16.18h2.775c0.558,0,0.982,0.056,1.273,0.169c0.29,0.113,0.522,0.311,0.696,0.596
			c0.174,0.285,0.26,0.599,0.26,0.944c0,0.444-0.144,0.819-0.431,1.123c-0.288,0.304-0.732,0.498-1.332,0.581
			c0.219,0.105,0.386,0.209,0.5,0.312c0.242,0.222,0.471,0.499,0.687,0.832l1.089,1.704h-1.042l-0.829-1.302
			c-0.242-0.376-0.441-0.663-0.598-0.862c-0.156-0.199-0.297-0.339-0.42-0.419c-0.124-0.08-0.25-0.135-0.378-0.167
			c-0.094-0.02-0.248-0.03-0.461-0.03h-0.961v2.78H116.211z M117.04,18.943h1.78c0.379,0,0.675-0.039,0.888-0.117
			s0.376-0.203,0.487-0.376c0.111-0.172,0.166-0.359,0.166-0.562c0-0.296-0.107-0.539-0.322-0.73
			c-0.215-0.191-0.554-0.286-1.018-0.286h-1.981V18.943z"/>
		<path fill="#3E3A39" d="M125.519,20.979l0.794,0.098c-0.126,0.464-0.358,0.824-0.696,1.08c-0.339,0.256-0.771,0.384-1.298,0.384
			c-0.663,0-1.189-0.204-1.578-0.613c-0.388-0.409-0.583-0.982-0.583-1.719c0-0.763,0.196-1.355,0.589-1.776
			c0.393-0.421,0.903-0.632,1.528-0.632c0.606,0,1.102,0.206,1.486,0.619c0.384,0.413,0.576,0.993,0.576,1.742
			c0,0.045-0.002,0.114-0.004,0.205h-3.382c0.028,0.498,0.169,0.879,0.423,1.144c0.253,0.265,0.569,0.397,0.948,0.397
			c0.282,0,0.522-0.074,0.722-0.222C125.245,21.54,125.403,21.304,125.519,20.979z M122.996,19.737h2.532
			c-0.034-0.381-0.131-0.668-0.291-0.858c-0.245-0.296-0.562-0.444-0.952-0.444c-0.353,0-0.65,0.118-0.89,0.354
			C123.155,19.025,123.021,19.341,122.996,19.737z"/>
		<path fill="#3E3A39" d="M126.971,21.086l0.76-0.119c0.043,0.305,0.161,0.538,0.356,0.7c0.195,0.162,0.468,0.243,0.818,0.243
			c0.353,0,0.614-0.072,0.785-0.216s0.256-0.312,0.256-0.506c0-0.174-0.075-0.31-0.226-0.41c-0.105-0.068-0.367-0.155-0.785-0.26
			c-0.564-0.142-0.955-0.266-1.172-0.369c-0.218-0.104-0.383-0.248-0.495-0.431c-0.112-0.184-0.169-0.386-0.169-0.608
			c0-0.202,0.047-0.389,0.139-0.561c0.092-0.172,0.219-0.315,0.378-0.429c0.119-0.088,0.282-0.163,0.489-0.224
			c0.206-0.061,0.428-0.092,0.664-0.092c0.356,0,0.669,0.051,0.937,0.154c0.269,0.102,0.468,0.241,0.596,0.416
			c0.128,0.175,0.217,0.409,0.265,0.702l-0.752,0.102c-0.034-0.233-0.133-0.416-0.297-0.546c-0.164-0.131-0.395-0.196-0.694-0.196
			c-0.353,0-0.605,0.058-0.756,0.175c-0.151,0.117-0.226,0.253-0.226,0.41c0,0.1,0.031,0.19,0.094,0.269
			c0.063,0.083,0.161,0.151,0.295,0.205c0.077,0.028,0.303,0.094,0.679,0.196c0.544,0.145,0.923,0.264,1.138,0.357
			c0.215,0.093,0.383,0.227,0.506,0.404c0.122,0.176,0.183,0.396,0.183,0.657c0,0.256-0.074,0.497-0.224,0.724
			c-0.149,0.226-0.365,0.401-0.647,0.525c-0.282,0.124-0.601,0.186-0.957,0.186c-0.589,0-1.038-0.122-1.347-0.367
			C127.253,21.93,127.056,21.567,126.971,21.086z"/>
		<path fill="#3E3A39" d="M134.755,20.979l0.794,0.098c-0.126,0.464-0.358,0.824-0.696,1.08c-0.339,0.256-0.771,0.384-1.298,0.384
			c-0.663,0-1.189-0.204-1.578-0.613c-0.388-0.409-0.583-0.982-0.583-1.719c0-0.763,0.196-1.355,0.589-1.776
			c0.393-0.421,0.903-0.632,1.528-0.632c0.606,0,1.102,0.206,1.486,0.619c0.384,0.413,0.576,0.993,0.576,1.742
			c0,0.045-0.001,0.114-0.004,0.205h-3.382c0.028,0.498,0.169,0.879,0.423,1.144c0.253,0.265,0.569,0.397,0.948,0.397
			c0.282,0,0.522-0.074,0.722-0.222C134.48,21.54,134.638,21.304,134.755,20.979z M132.232,19.737h2.532
			c-0.034-0.381-0.131-0.668-0.291-0.858c-0.245-0.296-0.562-0.444-0.952-0.444c-0.353,0-0.65,0.118-0.89,0.354
			C132.39,19.025,132.257,19.341,132.232,19.737z"/>
		<path fill="#3E3A39" d="M139.473,21.88c-0.285,0.242-0.558,0.413-0.822,0.512c-0.263,0.1-0.546,0.15-0.848,0.15
			c-0.498,0-0.881-0.122-1.148-0.365c-0.268-0.243-0.401-0.554-0.401-0.933c0-0.222,0.051-0.425,0.152-0.608
			c0.101-0.184,0.233-0.331,0.397-0.442c0.163-0.111,0.348-0.195,0.553-0.252c0.151-0.04,0.378-0.078,0.683-0.115
			c0.62-0.074,1.077-0.162,1.371-0.265c0.002-0.105,0.004-0.172,0.004-0.201c0-0.313-0.073-0.534-0.218-0.662
			c-0.197-0.174-0.488-0.261-0.875-0.261c-0.362,0-0.629,0.063-0.801,0.19c-0.172,0.127-0.3,0.351-0.382,0.673l-0.751-0.103
			c0.068-0.322,0.18-0.581,0.337-0.779c0.156-0.198,0.382-0.35,0.679-0.457c0.296-0.107,0.639-0.16,1.029-0.16
			c0.387,0,0.702,0.045,0.944,0.137s0.42,0.206,0.533,0.344c0.114,0.138,0.194,0.312,0.239,0.523
			c0.025,0.131,0.038,0.367,0.038,0.709v1.025c0,0.715,0.016,1.166,0.049,1.356c0.033,0.189,0.097,0.371,0.194,0.544h-0.803
			C139.547,22.28,139.496,22.094,139.473,21.88z M139.409,20.164c-0.279,0.114-0.698,0.211-1.256,0.29
			c-0.316,0.045-0.539,0.097-0.67,0.154c-0.131,0.057-0.232,0.14-0.303,0.25c-0.071,0.11-0.106,0.231-0.106,0.365
			c0,0.205,0.077,0.376,0.232,0.512c0.155,0.137,0.382,0.205,0.681,0.205c0.296,0,0.559-0.065,0.79-0.194
			c0.23-0.129,0.4-0.307,0.508-0.531c0.082-0.174,0.124-0.43,0.124-0.769V20.164z"/>
		<path fill="#3E3A39" d="M141.369,22.44v-4.535h0.692v0.687c0.176-0.322,0.339-0.534,0.489-0.636
			c0.149-0.103,0.314-0.154,0.493-0.154c0.259,0,0.522,0.082,0.79,0.248l-0.265,0.713c-0.188-0.111-0.376-0.167-0.563-0.167
			c-0.168,0-0.319,0.051-0.453,0.152c-0.134,0.101-0.229,0.241-0.286,0.42c-0.085,0.273-0.128,0.572-0.128,0.897v2.374H141.369z"/>
		<path fill="#3E3A39" d="M147.248,20.779l0.756,0.098c-0.082,0.521-0.294,0.929-0.634,1.223c-0.34,0.295-0.757,0.442-1.253,0.442
			c-0.621,0-1.12-0.203-1.497-0.608c-0.378-0.406-0.566-0.987-0.566-1.744c0-0.49,0.081-0.918,0.243-1.285
			c0.162-0.367,0.409-0.642,0.741-0.826c0.332-0.184,0.692-0.275,1.082-0.275c0.492,0,0.895,0.124,1.208,0.374
			c0.313,0.249,0.514,0.603,0.602,1.061l-0.747,0.115c-0.072-0.304-0.197-0.534-0.378-0.687c-0.181-0.154-0.399-0.23-0.656-0.23
			c-0.387,0-0.701,0.139-0.943,0.416c-0.242,0.278-0.363,0.717-0.363,1.317c0,0.609,0.117,1.052,0.35,1.328
			c0.233,0.276,0.538,0.414,0.913,0.414c0.302,0,0.554-0.092,0.756-0.277C147.066,21.448,147.194,21.163,147.248,20.779z"/>
		<path fill="#3E3A39" d="M148.661,22.44V16.18h0.769v2.246c0.359-0.416,0.811-0.623,1.358-0.623c0.336,0,0.628,0.066,0.875,0.198
			c0.248,0.132,0.425,0.315,0.532,0.549c0.107,0.233,0.16,0.572,0.16,1.016v2.874h-0.768v-2.874c0-0.384-0.083-0.664-0.25-0.839
			c-0.166-0.175-0.402-0.263-0.707-0.263c-0.227,0-0.442,0.059-0.643,0.177c-0.201,0.118-0.343,0.278-0.429,0.48
			c-0.085,0.202-0.128,0.481-0.128,0.837v2.481H148.661z"/>
		<path fill="#3E3A39" d="M159.532,21.701c-0.253,0.282-0.529,0.493-0.829,0.634c-0.299,0.141-0.622,0.211-0.969,0.211
			c-0.64,0-1.148-0.216-1.524-0.649c-0.304-0.353-0.457-0.747-0.457-1.183c0-0.387,0.125-0.736,0.374-1.048
			c0.249-0.312,0.621-0.586,1.116-0.822c-0.282-0.324-0.469-0.588-0.563-0.79c-0.094-0.202-0.141-0.397-0.141-0.585
			c0-0.376,0.148-0.702,0.442-0.98c0.295-0.277,0.665-0.416,1.112-0.416c0.427,0,0.776,0.131,1.048,0.393
			c0.272,0.262,0.408,0.576,0.408,0.944c0,0.595-0.394,1.103-1.183,1.524l1.123,1.431c0.128-0.251,0.227-0.541,0.299-0.871
			l0.798,0.171c-0.137,0.547-0.322,0.996-0.555,1.349c0.287,0.381,0.613,0.702,0.977,0.961l-0.517,0.611
			C160.182,22.386,159.862,22.091,159.532,21.701z M159.05,21.095l-1.409-1.746c-0.416,0.248-0.696,0.478-0.841,0.69
			c-0.145,0.212-0.218,0.422-0.218,0.63c0,0.254,0.101,0.517,0.303,0.79c0.202,0.273,0.488,0.41,0.858,0.41
			c0.23,0,0.469-0.072,0.715-0.216C158.705,21.508,158.901,21.323,159.05,21.095z M157.969,18.439
			c0.333-0.196,0.548-0.369,0.647-0.517c0.098-0.148,0.148-0.312,0.148-0.491c0-0.214-0.068-0.388-0.203-0.523
			c-0.135-0.135-0.304-0.203-0.506-0.203c-0.208,0-0.381,0.067-0.519,0.201c-0.138,0.134-0.207,0.298-0.207,0.491
			c0,0.097,0.025,0.199,0.075,0.305c0.05,0.107,0.124,0.22,0.224,0.339L157.969,18.439z"/>
		<path fill="#3E3A39" d="M165.758,22.44v-5.521h-2.062V16.18h4.961v0.739h-2.071v5.521H165.758z"/>
		<path fill="#3E3A39" d="M171.551,20.979l0.794,0.098c-0.126,0.464-0.358,0.824-0.696,1.08c-0.339,0.256-0.771,0.384-1.298,0.384
			c-0.663,0-1.189-0.204-1.578-0.613c-0.388-0.409-0.583-0.982-0.583-1.719c0-0.763,0.196-1.355,0.589-1.776
			c0.393-0.421,0.903-0.632,1.528-0.632c0.607,0,1.102,0.206,1.486,0.619c0.384,0.413,0.576,0.993,0.576,1.742
			c0,0.045-0.002,0.114-0.004,0.205h-3.382c0.028,0.498,0.169,0.879,0.423,1.144c0.253,0.265,0.569,0.397,0.948,0.397
			c0.282,0,0.522-0.074,0.722-0.222C171.277,21.54,171.434,21.304,171.551,20.979z M169.028,19.737h2.532
			c-0.034-0.381-0.131-0.668-0.291-0.858c-0.245-0.296-0.562-0.444-0.952-0.444c-0.353,0-0.65,0.118-0.89,0.354
			C169.186,19.025,169.053,19.341,169.028,19.737z"/>
		<path fill="#3E3A39" d="M173.003,21.086l0.76-0.119c0.043,0.305,0.161,0.538,0.356,0.7c0.195,0.162,0.468,0.243,0.818,0.243
			c0.353,0,0.614-0.072,0.785-0.216s0.256-0.312,0.256-0.506c0-0.174-0.075-0.31-0.226-0.41c-0.105-0.068-0.367-0.155-0.785-0.26
			c-0.564-0.142-0.955-0.266-1.172-0.369c-0.218-0.104-0.383-0.248-0.495-0.431c-0.112-0.184-0.169-0.386-0.169-0.608
			c0-0.202,0.047-0.389,0.139-0.561c0.092-0.172,0.219-0.315,0.378-0.429c0.119-0.088,0.282-0.163,0.489-0.224
			c0.206-0.061,0.428-0.092,0.664-0.092c0.356,0,0.669,0.051,0.937,0.154c0.269,0.102,0.468,0.241,0.596,0.416
			c0.128,0.175,0.217,0.409,0.265,0.702l-0.752,0.102c-0.034-0.233-0.133-0.416-0.297-0.546c-0.164-0.131-0.395-0.196-0.694-0.196
			c-0.353,0-0.605,0.058-0.756,0.175c-0.151,0.117-0.227,0.253-0.227,0.41c0,0.1,0.031,0.19,0.094,0.269
			c0.063,0.083,0.161,0.151,0.295,0.205c0.077,0.028,0.303,0.094,0.679,0.196c0.544,0.145,0.923,0.264,1.138,0.357
			c0.215,0.093,0.383,0.227,0.506,0.404c0.122,0.176,0.183,0.396,0.183,0.657c0,0.256-0.074,0.497-0.224,0.724
			c-0.149,0.226-0.365,0.401-0.647,0.525c-0.282,0.124-0.601,0.186-0.957,0.186c-0.589,0-1.038-0.122-1.347-0.367
			C173.285,21.93,173.088,21.567,173.003,21.086z"/>
		<path fill="#3E3A39" d="M179.361,21.752l0.111,0.679c-0.216,0.045-0.41,0.068-0.581,0.068c-0.279,0-0.495-0.044-0.649-0.132
			c-0.154-0.088-0.262-0.204-0.325-0.348c-0.063-0.144-0.094-0.446-0.094-0.908v-2.609h-0.564v-0.598h0.564v-1.123l0.764-0.461
			v1.584h0.773v0.598h-0.773v2.651c0,0.219,0.013,0.36,0.04,0.423c0.027,0.063,0.072,0.113,0.133,0.15
			c0.061,0.037,0.149,0.055,0.263,0.055C179.109,21.782,179.221,21.772,179.361,21.752z"/>
		<path fill="#3E3A39" d="M180.116,17.064V16.18h0.768v0.884H180.116z M180.116,22.44v-4.535h0.768v4.535H180.116z"/>
		<path fill="#3E3A39" d="M182.054,22.44v-4.535h0.692v0.645c0.333-0.498,0.814-0.747,1.443-0.747c0.274,0,0.525,0.049,0.754,0.147
			c0.229,0.098,0.4,0.227,0.514,0.386c0.114,0.159,0.194,0.349,0.239,0.568c0.028,0.142,0.043,0.391,0.043,0.747v2.788h-0.769
			v-2.758c0-0.313-0.03-0.547-0.089-0.702c-0.06-0.155-0.166-0.279-0.318-0.372c-0.152-0.092-0.331-0.139-0.536-0.139
			c-0.327,0-0.61,0.104-0.848,0.312c-0.237,0.208-0.356,0.602-0.356,1.183v2.476H182.054z"/>
		<path fill="#3E3A39" d="M186.777,22.815l0.747,0.111c0.031,0.23,0.118,0.398,0.26,0.504c0.191,0.142,0.452,0.213,0.781,0.213
			c0.356,0,0.631-0.071,0.825-0.213c0.193-0.143,0.324-0.342,0.392-0.598c0.04-0.157,0.059-0.485,0.056-0.987
			c-0.336,0.396-0.755,0.594-1.255,0.594c-0.623,0-1.106-0.225-1.447-0.675c-0.342-0.45-0.513-0.989-0.513-1.618
			c0-0.433,0.078-0.832,0.235-1.198c0.156-0.366,0.383-0.648,0.681-0.848c0.298-0.199,0.647-0.299,1.048-0.299
			c0.535,0,0.977,0.216,1.324,0.649v-0.547h0.709v3.92c0,0.706-0.072,1.206-0.216,1.501c-0.144,0.295-0.372,0.528-0.683,0.698
			c-0.312,0.171-0.695,0.256-1.151,0.256c-0.541,0-0.978-0.122-1.311-0.365C186.927,23.672,186.766,23.305,186.777,22.815z
			 M187.413,20.091c0,0.595,0.118,1.029,0.354,1.302c0.236,0.273,0.532,0.41,0.888,0.41c0.353,0,0.649-0.136,0.888-0.408
			c0.239-0.272,0.359-0.698,0.359-1.279c0-0.555-0.123-0.974-0.37-1.255c-0.246-0.282-0.543-0.423-0.89-0.423
			c-0.341,0-0.632,0.139-0.871,0.416C187.533,19.133,187.413,19.545,187.413,20.091z"/>
		<path fill="#3E3A39" d="M198.775,20.245l0.828,0.209c-0.173,0.68-0.486,1.199-0.937,1.556c-0.451,0.357-1.002,0.536-1.655,0.536
			c-0.675,0-1.223-0.137-1.646-0.412c-0.423-0.275-0.745-0.673-0.965-1.193c-0.221-0.521-0.331-1.08-0.331-1.678
			c0-0.652,0.124-1.22,0.374-1.706c0.249-0.485,0.604-0.854,1.063-1.106c0.46-0.252,0.966-0.378,1.518-0.378
			c0.626,0,1.153,0.159,1.58,0.478c0.427,0.319,0.724,0.767,0.892,1.345l-0.816,0.192c-0.145-0.455-0.356-0.787-0.632-0.995
			c-0.276-0.208-0.623-0.312-1.042-0.312c-0.481,0-0.883,0.115-1.207,0.346c-0.323,0.231-0.55,0.54-0.681,0.929
			c-0.131,0.388-0.196,0.789-0.196,1.202c0,0.532,0.077,0.997,0.232,1.394c0.155,0.397,0.396,0.694,0.724,0.89
			c0.327,0.196,0.682,0.295,1.063,0.295c0.464,0,0.857-0.134,1.178-0.401C198.443,21.169,198.661,20.772,198.775,20.245z"/>
		<path fill="#3E3A39" d="M203.63,20.979l0.794,0.098c-0.126,0.464-0.358,0.824-0.696,1.08c-0.339,0.256-0.771,0.384-1.298,0.384
			c-0.663,0-1.189-0.204-1.578-0.613c-0.388-0.409-0.583-0.982-0.583-1.719c0-0.763,0.196-1.355,0.589-1.776
			c0.393-0.421,0.903-0.632,1.528-0.632c0.606,0,1.102,0.206,1.486,0.619c0.384,0.413,0.576,0.993,0.576,1.742
			c0,0.045-0.001,0.114-0.004,0.205h-3.382c0.028,0.498,0.169,0.879,0.423,1.144c0.253,0.265,0.569,0.397,0.948,0.397
			c0.282,0,0.522-0.074,0.722-0.222C203.355,21.54,203.513,21.304,203.63,20.979z M201.106,19.737h2.532
			c-0.034-0.381-0.131-0.668-0.291-0.858c-0.245-0.296-0.562-0.444-0.952-0.444c-0.353,0-0.65,0.118-0.89,0.354
			C201.265,19.025,201.132,19.341,201.106,19.737z"/>
		<path fill="#3E3A39" d="M205.389,22.44v-4.535h0.692v0.645c0.333-0.498,0.814-0.747,1.443-0.747c0.274,0,0.525,0.049,0.754,0.147
			c0.229,0.098,0.4,0.227,0.514,0.386c0.114,0.159,0.194,0.349,0.239,0.568c0.028,0.142,0.043,0.391,0.043,0.747v2.788h-0.769
			v-2.758c0-0.313-0.03-0.547-0.089-0.702c-0.06-0.155-0.166-0.279-0.318-0.372c-0.152-0.092-0.331-0.139-0.536-0.139
			c-0.327,0-0.61,0.104-0.848,0.312c-0.237,0.208-0.356,0.602-0.356,1.183v2.476H205.389z"/>
		<path fill="#3E3A39" d="M211.93,21.752l0.111,0.679c-0.216,0.045-0.41,0.068-0.581,0.068c-0.279,0-0.495-0.044-0.649-0.132
			c-0.154-0.088-0.262-0.204-0.325-0.348c-0.063-0.144-0.094-0.446-0.094-0.908v-2.609h-0.564v-0.598h0.564v-1.123l0.764-0.461
			v1.584h0.773v0.598h-0.773v2.651c0,0.219,0.013,0.36,0.04,0.423c0.027,0.063,0.072,0.113,0.133,0.15
			c0.061,0.037,0.149,0.055,0.263,0.055C211.678,21.782,211.791,21.772,211.93,21.752z"/>
		<path fill="#3E3A39" d="M215.786,20.979l0.794,0.098c-0.126,0.464-0.358,0.824-0.696,1.08c-0.339,0.256-0.771,0.384-1.298,0.384
			c-0.663,0-1.189-0.204-1.578-0.613c-0.388-0.409-0.583-0.982-0.583-1.719c0-0.763,0.196-1.355,0.589-1.776
			c0.393-0.421,0.903-0.632,1.528-0.632c0.607,0,1.102,0.206,1.486,0.619c0.384,0.413,0.576,0.993,0.576,1.742
			c0,0.045-0.002,0.114-0.004,0.205h-3.382c0.028,0.498,0.169,0.879,0.423,1.144c0.253,0.265,0.569,0.397,0.948,0.397
			c0.282,0,0.522-0.074,0.722-0.222C215.511,21.54,215.669,21.304,215.786,20.979z M213.263,19.737h2.532
			c-0.034-0.381-0.131-0.668-0.291-0.858c-0.245-0.296-0.562-0.444-0.952-0.444c-0.353,0-0.65,0.118-0.89,0.354
			C213.421,19.025,213.288,19.341,213.263,19.737z"/>
		<path fill="#3E3A39" d="M217.536,22.44v-4.535h0.692v0.687c0.176-0.322,0.339-0.534,0.489-0.636
			c0.15-0.103,0.314-0.154,0.493-0.154c0.259,0,0.522,0.082,0.79,0.248l-0.265,0.713c-0.188-0.111-0.376-0.167-0.563-0.167
			c-0.168,0-0.319,0.051-0.453,0.152c-0.134,0.101-0.229,0.241-0.286,0.42c-0.085,0.273-0.128,0.572-0.128,0.897v2.374H217.536z"/>
	</g>
	<g>
		<g>
			<path fill="#AC0E4E" d="M12.543,25.1C5.593,25.1,0,19.457,0,12.542C0,5.644,5.593,0,12.543,0h37.231
				c6.902,0,12.538,5.644,12.538,12.542c0,6.915-5.636,12.557-12.538,12.557H12.543z M12.543,3.623c-4.92,0-8.918,3.999-8.918,8.919
				c0,4.935,3.998,8.931,8.918,8.931h37.231c4.928,0,8.927-3.996,8.927-8.931c0-4.92-3.999-8.919-8.927-8.919H12.543z"/>
		</g>
		<polygon fill="#AC0E4E" points="7.374,19.795 10.738,19.795 11.322,18.061 16.504,18.061 17.039,19.795 20.466,19.795 
			18.185,12.756 14.779,12.756 15.451,14.736 12.382,14.736 13.053,12.756 9.641,12.756 		"/>
		<polygon fill="#AC0E4E" points="18.062,12.418 17.725,11.286 14.325,11.286 14.697,12.418 		"/>
		<polygon fill="#AC0E4E" points="17.601,10.948 17.265,9.853 10.574,9.853 10.188,10.948 13.602,10.948 13.895,10.064 
			14.187,10.948 		"/>
		<polygon fill="#AC0E4E" points="17.134,9.518 16.804,8.42 11.023,8.42 10.694,9.518 		"/>
		<polygon fill="#AC0E4E" points="16.672,8.084 16.337,6.989 11.497,6.989 11.161,8.084 		"/>
		<polygon fill="#AC0E4E" points="16.205,6.652 15.832,5.52 15.371,5.52 12.469,5.52 11.958,5.52 11.621,6.652 		"/>
		<polygon fill="#AC0E4E" points="10.108,11.286 9.728,12.418 13.142,12.418 13.516,11.286 		"/>
		<g>
			<path fill="#AC0E4E" d="M21.057,19.795h3.408v-6.104h1.557l2.783,6.104h3.408l-2.914-6.365c0.473-0.128,0.896-0.375,1.232-0.673
				h-9.473V19.795z"/>
			<path fill="#AC0E4E" d="M30.904,12.418c0.304-0.336,0.547-0.71,0.715-1.132H21.056v1.132H30.904z"/>
			<path fill="#AC0E4E" d="M31.745,10.948c0.131-0.335,0.217-0.708,0.26-1.095H29.06c-0.093,0.511-0.43,0.933-0.896,1.095H31.745z"
				/>
			<path fill="#AC0E4E" d="M32.006,9.518c0-0.388-0.08-0.76-0.174-1.098h-3.369c0.342,0.251,0.548,0.637,0.598,1.098H32.006z"/>
			<path fill="#AC0E4E" d="M31.701,8.084c-0.162-0.425-0.411-0.797-0.661-1.095h-9.984v1.095H31.701z"/>
			<path fill="#AC0E4E" d="M30.692,6.652C29.981,5.941,29.01,5.52,27.926,5.52h-3.462h-1.353h-2.055v1.132H30.692z"/>
		</g>
		<rect x="21.057" y="8.42" fill="#AC0E4E" width="3.408" height="1.098"/>
		<rect x="21.057" y="9.853" fill="#AC0E4E" width="3.408" height="1.095"/>
		<polygon fill="#AC0E4E" points="40.719,9.518 44.631,9.518 44.631,8.42 33.383,8.42 33.383,9.518 37.313,9.518 		"/>
		<rect x="37.314" y="9.854" fill="#AC0E4E" width="3.406" height="1.095"/>
		<rect x="37.314" y="11.286" fill="#AC0E4E" width="3.406" height="1.132"/>
		<rect x="37.314" y="12.756" fill="#AC0E4E" width="3.406" height="7.038"/>
		<rect x="33.383" y="6.989" fill="#AC0E4E" width="11.248" height="1.095"/>
		<rect x="33.383" y="5.519" fill="#AC0E4E" width="11.248" height="1.132"/>
		<g>
			<path fill="#AC0E4E" d="M50.747,19.993c2.778,0,5.088-2.391,5.716-5.629h-3.786c-0.343,1.294-1.053,2.178-1.856,2.178
				c-1.091,0-2.018-1.719-2.018-3.785h-3.955C44.885,16.755,47.546,19.993,50.747,19.993"/>
			<path fill="#AC0E4E" d="M48.803,12.418c0-0.421,0.043-0.76,0.131-1.132h-3.967c-0.082,0.372-0.082,0.759-0.118,1.132H48.803z"/>
			<path fill="#AC0E4E" d="M49.003,10.948c0.1-0.421,0.255-0.759,0.424-1.095h-4.125c-0.118,0.387-0.198,0.722-0.285,1.095H49.003z"
				/>
			<path fill="#AC0E4E" d="M49.65,9.518c0.336-0.461,0.754-0.76,1.171-0.76c0.461,0,0.878,0.299,1.22,0.76h3.999
				c-0.124-0.388-0.287-0.76-0.491-1.098h-9.611c-0.212,0.338-0.386,0.71-0.51,1.098H49.65z"/>
			<path fill="#AC0E4E" d="M55.33,8.084c-0.248-0.425-0.547-0.797-0.847-1.095h-7.498c-0.287,0.298-0.586,0.67-0.842,1.095H55.33z"
				/>
			<path fill="#AC0E4E" d="M54.11,6.652c-0.934-0.884-2.105-1.346-3.363-1.346c-1.27,0-2.448,0.462-3.426,1.346H54.11z"/>
		</g>
	</g>
</g>
</svg>
