<!-- Generator: Adobe Illustrator 17.0.0, SVG Export Plug-In  -->
<svg version="1.1"
	 xmlns="http://www.w3.org/2000/svg" xmlns:xlink="http://www.w3.org/1999/xlink" xmlns:a="http://ns.adobe.com/AdobeSVGViewerExtensions/3.0/"
	 x="0px" y="0px" width="12.895px" height="12.895px" viewBox="0 0 12.895 12.895" enable-background="new 0 0 12.895 12.895"
	 xml:space="preserve">
<defs>
</defs>
<g>
	<path fill="#F9F9F9" d="M12.895,4.433c0,2.448-1.985,4.433-4.433,4.433c-0.283,0-0.559-0.027-0.827-0.077l-0.605,0.68
		C6.916,9.597,6.752,9.671,6.579,9.671H5.642v1.007c0,0.334-0.271,0.604-0.604,0.604H4.03v1.007c0,0.334-0.271,0.604-0.604,0.604
		H0.604C0.271,12.895,0,12.624,0,12.29v-1.966c0-0.16,0.064-0.314,0.177-0.427l4.075-4.075C4.108,5.385,4.03,4.918,4.03,4.433
		C4.03,1.985,6.014,0,8.462,0C10.918,0,12.895,1.977,12.895,4.433z M8.462,3.224c0,0.668,0.541,1.209,1.209,1.209
		c0.668,0,1.209-0.541,1.209-1.209s-0.541-1.209-1.209-1.209C9.004,2.015,8.462,2.556,8.462,3.224z"/>
</g>
</svg>
