<!-- Generator: Adobe Illustrator 17.0.0, SVG Export Plug-In  -->
<svg version="1.1"
	 xmlns="http://www.w3.org/2000/svg" xmlns:xlink="http://www.w3.org/1999/xlink" xmlns:a="http://ns.adobe.com/AdobeSVGViewerExtensions/3.0/"
	 x="0px" y="0px" width="18.656px" height="18.656px" viewBox="0 0 18.656 18.656" enable-background="new 0 0 18.656 18.656"
	 xml:space="preserve">
<defs>
</defs>
<g>
	<path fill="#0075BE" d="M16.657,0H1.999C0.895,0,0,0.895,0,1.999v14.658c0,1.104,0.895,1.999,1.999,1.999h14.658
		c1.104,0,1.999-0.895,1.999-1.999V1.999C18.656,0.895,17.761,0,16.657,0z M15.975,12.8l-0.625,2.707
		c-0.065,0.283-0.318,0.484-0.608,0.484c-6.663,0-12.077-5.402-12.077-12.077c0.01-0.287,0.207-0.534,0.484-0.608l2.707-0.625
		c0.046-0.01,0.093-0.015,0.14-0.016c0.246,0.012,0.466,0.157,0.574,0.379L7.82,5.959c0.031,0.079,0.048,0.162,0.05,0.246
		C7.86,6.39,7.778,6.563,7.642,6.688L6.064,7.979c0.956,2.026,2.587,3.657,4.613,4.613l1.291-1.578
		c0.125-0.137,0.299-0.219,0.483-0.229c0.084,0.003,0.168,0.02,0.246,0.05l2.915,1.249c0.221,0.108,0.366,0.328,0.379,0.574
		C15.99,12.707,15.985,12.754,15.975,12.8z"/>
</g>
</svg>
