<!-- Generator: Adobe Illustrator 17.0.0, SVG Export Plug-In  -->
<svg version="1.1"
	 xmlns="http://www.w3.org/2000/svg" xmlns:xlink="http://www.w3.org/1999/xlink" xmlns:a="http://ns.adobe.com/AdobeSVGViewerExtensions/3.0/"
	 x="0px" y="0px" width="23.372px" height="19.478px" viewBox="0 0 23.372 19.478" enable-background="new 0 0 23.372 19.478"
	 xml:space="preserve">
<defs>
</defs>
<g>
	<path fill="#333333" d="M8.725,2.234l-3.61,3.609H0.974C0.436,5.843,0,6.279,0,6.817v5.843c0,0.538,0.436,0.974,0.974,0.974h4.141
		l3.61,3.609c0.61,0.61,1.662,0.181,1.662-0.689V2.923C10.388,2.052,9.334,1.625,8.725,2.234L8.725,2.234z M18.193,0.161
		c-0.453-0.297-1.062-0.172-1.36,0.282c-0.298,0.453-0.171,1.062,0.282,1.36c2.689,1.765,4.294,4.731,4.294,7.936
		s-1.605,6.171-4.294,7.936c-0.453,0.297-0.58,0.906-0.282,1.359c0.286,0.435,0.89,0.591,1.36,0.282
		c3.243-2.129,5.18-5.71,5.18-9.578S21.435,2.29,18.193,0.161z M19.477,9.739c0-2.578-1.301-4.948-3.48-6.34
		c-0.454-0.29-1.056-0.155-1.344,0.303c-0.288,0.458-0.153,1.064,0.301,1.354c1.613,1.03,2.576,2.781,2.576,4.683
		s-0.963,3.653-2.576,4.683c-0.454,0.29-0.588,0.896-0.301,1.354c0.264,0.42,0.857,0.614,1.344,0.303
		C18.176,14.687,19.477,12.317,19.477,9.739z M13.724,6.619c-0.47-0.257-1.063-0.088-1.323,0.383
		c-0.259,0.471-0.088,1.063,0.383,1.323c0.524,0.288,0.849,0.829,0.849,1.412c0,0.583-0.325,1.125-0.849,1.412
		c-0.471,0.26-0.643,0.852-0.383,1.323c0.261,0.473,0.854,0.641,1.323,0.383c1.145-0.631,1.857-1.826,1.857-3.12
		S14.87,7.25,13.724,6.619L13.724,6.619z"/>
</g>
</svg>
