<?xml version="1.0" encoding="utf-8"?>
<svg version="1.1" xmlns:xlink="http://www.w3.org/1999/xlink" width="336px" height="30px" xmlns="http://www.w3.org/2000/svg">
  <g transform="matrix(1 0 0 1 -429 -506 )">
    <path d="M 430 510  A 3 3 0 0 1 433 507 L 761 507  A 3 3 0 0 1 764 510 L 764 532  A 3 3 0 0 1 761 535 L 433 535  A 3 3 0 0 1 430 532 L 430 510  Z " fill-rule="nonzero" fill="#ffffff" stroke="none" fill-opacity="0" />
    <path d="M 429.5 510  A 3.5 3.5 0 0 1 433 506.5 L 761 506.5  A 3.5 3.5 0 0 1 764.5 510 L 764.5 532  A 3.5 3.5 0 0 1 761 535.5 L 433 535.5  A 3.5 3.5 0 0 1 429.5 532 L 429.5 510  Z " stroke-width="1" stroke="#555555" fill="none" stroke-opacity="0.403921568627451" />
  </g>
</svg>