<!-- Generator: Adobe Illustrator 17.0.0, SVG Export Plug-In  -->
<svg version="1.1"
	 xmlns="http://www.w3.org/2000/svg" xmlns:xlink="http://www.w3.org/1999/xlink" xmlns:a="http://ns.adobe.com/AdobeSVGViewerExtensions/3.0/"
	 x="0px" y="0px" width="13.082px" height="13.091px" viewBox="0 0 13.082 13.091" enable-background="new 0 0 13.082 13.091"
	 xml:space="preserve">
<defs>
</defs>
<g>
	<path fill="#BCBCBC" d="M9.618,3.298C8.601,2.4,7.476,1.993,6.186,2.098C4.324,2.249,2.82,3.466,2.273,5.256
		c-0.096,0.314-0.246,0.45-0.578,0.43C1.324,5.663,0.95,5.682,0.577,5.68C0.173,5.677,0.065,5.548,0.155,5.155
		c0.434-1.89,1.485-3.333,3.17-4.291c2.426-1.38,5.357-1.088,7.468,0.734c0.218,0.189,0.355,0.197,0.542-0.021
		c0.197-0.228,0.423-0.432,0.638-0.644c0.2-0.196,0.427-0.307,0.71-0.19c0.287,0.119,0.399,0.341,0.398,0.646
		c-0.005,1.119,0.001,2.238-0.003,3.357c-0.002,0.497-0.224,0.714-0.727,0.716c-1.109,0.004-2.218-0.002-3.326,0.003
		C8.724,5.467,8.493,5.371,8.367,5.085C8.238,4.791,8.35,4.556,8.557,4.349C8.899,4.009,9.242,3.67,9.618,3.298z"/>
	<path fill="#BCBCBC" d="M3.474,9.775c0.42,0.448,0.895,0.713,1.398,0.916c2.416,0.973,5.149-0.331,5.93-2.817
		c0.141-0.45,0.158-0.463,0.636-0.463c0.363,0,0.726-0.003,1.089,0.001c0.379,0.004,0.487,0.141,0.401,0.517
		c-0.433,1.903-1.494,3.35-3.191,4.31c-2.416,1.366-5.343,1.072-7.442-0.741c-0.236-0.204-0.373-0.191-0.564,0.032
		c-0.196,0.229-0.422,0.433-0.639,0.644c-0.203,0.197-0.435,0.292-0.714,0.167C0.107,12.218-0.001,12.001,0,11.71
		c0.004-1.129-0.002-2.258,0.003-3.387C0.006,7.859,0.23,7.632,0.691,7.63C1.82,7.624,2.949,7.63,4.078,7.626
		C4.384,7.624,4.605,7.74,4.723,8.026C4.839,8.31,4.727,8.538,4.529,8.735C4.188,9.076,3.842,9.413,3.474,9.775z"/>
</g>
</svg>
