<?xml version="1.0" encoding="utf-8"?>
<svg version="1.1" xmlns:xlink="http://www.w3.org/1999/xlink" width="720px" height="100px" xmlns="http://www.w3.org/2000/svg">
  <g transform="matrix(1 0 0 1 -280 -1282 )">
    <path d="M 281 1286  A 3 3 0 0 1 284 1283 L 996 1283  A 3 3 0 0 1 999 1286 L 999 1378  A 3 3 0 0 1 996 1381 L 284 1381  A 3 3 0 0 1 281 1378 L 281 1286  Z " fill-rule="nonzero" fill="#ffffff" stroke="none" fill-opacity="0" />
    <path d="M 280.5 1286  A 3.5 3.5 0 0 1 284 1282.5 L 996 1282.5  A 3.5 3.5 0 0 1 999.5 1286 L 999.5 1378  A 3.5 3.5 0 0 1 996 1381.5 L 284 1381.5  A 3.5 3.5 0 0 1 280.5 1378 L 280.5 1286  Z " stroke-width="1" stroke="#555555" fill="none" stroke-opacity="0.403921568627451" />
  </g>
</svg>