<?xml version="1.0" encoding="utf-8"?>
<svg version="1.1" xmlns:xlink="http://www.w3.org/1999/xlink" width="656px" height="260px" xmlns="http://www.w3.org/2000/svg">
  <g transform="matrix(1 0 0 1 -269 -711 )">
    <path d="M 269 711  L 925 711  L 925 971  L 269 971  L 269 711  " fill-rule="nonzero" fill="#cccccc" stroke="none" />
    <path d="M 287 729  L 907 729  L 907 953  L 287 953  L 287 729  " fill-rule="nonzero" fill="#ffffff" stroke="none" />
    <path d="M 629.62 789  C 618.7 789  610.12 780.42  610.12 769.5  C 610.12 758.58  618.7 750  629.62 750  C 640.54 750  649.12 758.58  649.12 769.5  C 649.12 780.42  640.54 789  629.62 789  " fill-rule="nonzero" fill="#cccccc" stroke="none" />
    <path d="M 294 947  L 294 830.95  L 445.75 778.2  L 658.2 896.823170731707  L 779.6 809.85  L 901 896.823170731707  L 901 947  L 294 947  " fill-rule="nonzero" fill="#169bd5" stroke="none" />
  </g>
</svg>