<!-- Generator: Adobe Illustrator 17.0.0, SVG Export Plug-In  -->
<svg version="1.1"
	 xmlns="http://www.w3.org/2000/svg" xmlns:xlink="http://www.w3.org/1999/xlink" xmlns:a="http://ns.adobe.com/AdobeSVGViewerExtensions/3.0/"
	 x="0px" y="0px" width="307px" height="16px" viewBox="0 0 307 16" enable-background="new 0 0 307 16" xml:space="preserve">
<defs>
</defs>
<g>
	<text transform="matrix(1 0 0 1 59.9519 10.9023)" fill="#AC0E4E" font-family="'MicrosoftJhengHeiRegular'" font-size="12">01</text>
	<text transform="matrix(1 0 0 1 89.4619 10.9023)" fill="#777777" font-family="'MicrosoftJhengHeiRegular'" font-size="12">02</text>
	<text transform="matrix(1 0 0 1 118.9717 10.9023)" fill="#777777" font-family="'MicrosoftJhengHeiRegular'" font-size="12">03</text>
	<text transform="matrix(1 0 0 1 148.4819 10.9023)" fill="#777777" font-family="'MicrosoftJhengHeiRegular'" font-size="12">04</text>
	<text transform="matrix(1 0 0 1 177.9912 10.9023)" fill="#777777" font-family="'MicrosoftJhengHeiRegular'" font-size="12">05</text>
	<text transform="matrix(1 0 0 1 231.6982 10.9023)" fill="#777777" font-family="'MicrosoftJhengHeiRegular'" font-size="12">29</text>
	<text transform="matrix(1 0 0 1 207.501 10.9023)" fill="#777777" font-family="'MicrosoftJhengHeiRegular'" font-size="12">...</text>
	<g>
		<text transform="matrix(1 0 0 1 268.7363 11.5842)" fill="#777777" font-family="'MicrosoftJhengHeiRegular'" font-size="12">NEXT</text>
		<rect x="261.5" y="0.5" fill="none" stroke="#777777" stroke-miterlimit="10" width="45" height="15"/>
	</g>
	<g>
		<text transform="matrix(1 0 0 1 6.4568 11.5842)" fill="#777777" font-family="'MicrosoftJhengHeiRegular'" font-size="12">PRVE</text>
		<rect x="0.5" y="0.5" fill="none" stroke="#777777" stroke-miterlimit="10" width="45" height="15"/>
	</g>
</g>
</svg>
