<?xml version="1.0" encoding="utf-8"?>
<svg version="1.1" xmlns:xlink="http://www.w3.org/1999/xlink" width="829px" height="30px" xmlns="http://www.w3.org/2000/svg">
  <g transform="matrix(1 0 0 1 -91 -544 )">
    <path d="M 92 548  A 3 3 0 0 1 95 545 L 916 545  A 3 3 0 0 1 919 548 L 919 570  A 3 3 0 0 1 916 573 L 95 573  A 3 3 0 0 1 92 570 L 92 548  Z " fill-rule="nonzero" fill="#f2f2f2" stroke="none" />
    <path d="M 91.5 548  A 3.5 3.5 0 0 1 95 544.5 L 916 544.5  A 3.5 3.5 0 0 1 919.5 548 L 919.5 570  A 3.5 3.5 0 0 1 916 573.5 L 95 573.5  A 3.5 3.5 0 0 1 91.5 570 L 91.5 548  Z " stroke-width="1" stroke="#555555" fill="none" stroke-opacity="0.403921568627451" />
  </g>
</svg>