<?xml version="1.0" encoding="utf-8"?>
<svg version="1.1" xmlns:xlink="http://www.w3.org/1999/xlink" width="829px" height="30px" xmlns="http://www.w3.org/2000/svg">
  <g transform="matrix(1 0 0 1 -91 -613 )">
    <path d="M 92 617  A 3 3 0 0 1 95 614 L 916 614  A 3 3 0 0 1 919 617 L 919 639  A 3 3 0 0 1 916 642 L 95 642  A 3 3 0 0 1 92 639 L 92 617  Z " fill-rule="nonzero" fill="#ffffff" stroke="none" />
    <path d="M 91.5 617  A 3.5 3.5 0 0 1 95 613.5 L 916 613.5  A 3.5 3.5 0 0 1 919.5 617 L 919.5 639  A 3.5 3.5 0 0 1 916 642.5 L 95 642.5  A 3.5 3.5 0 0 1 91.5 639 L 91.5 617  Z " stroke-width="1" stroke="#555555" fill="none" stroke-opacity="0.403921568627451" />
  </g>
</svg>