<?xml version="1.0" encoding="utf-8"?>
<svg version="1.1" xmlns:xlink="http://www.w3.org/1999/xlink" width="239px" height="30px" xmlns="http://www.w3.org/2000/svg">
  <g transform="matrix(1 0 0 1 -91 -542 )">
    <path d="M 92 546  A 3 3 0 0 1 95 543 L 326 543  A 3 3 0 0 1 329 546 L 329 568  A 3 3 0 0 1 326 571 L 95 571  A 3 3 0 0 1 92 568 L 92 546  Z " fill-rule="nonzero" fill="#ffffff" stroke="none" fill-opacity="0" />
    <path d="M 91.5 546  A 3.5 3.5 0 0 1 95 542.5 L 326 542.5  A 3.5 3.5 0 0 1 329.5 546 L 329.5 568  A 3.5 3.5 0 0 1 326 571.5 L 95 571.5  A 3.5 3.5 0 0 1 91.5 568 L 91.5 546  Z " stroke-width="1" stroke="#555555" fill="none" stroke-opacity="0.403921568627451" />
  </g>
</svg>